<svg width="29" height="28" viewBox="0 0 29 28" fill="none" xmlns="http://www.w3.org/2000/svg">
<path d="M24.4328 10.0662C23.2279 4.76473 18.6035 2.37793 14.5413 2.37793H14.5299C10.4792 2.37793 5.84329 4.75325 4.63841 10.0547C3.29584 15.9758 6.92194 20.9904 10.2038 24.146C11.367 25.2719 12.9224 25.9015 14.5413 25.9017C16.1019 25.9017 17.6625 25.3165 18.8674 24.146C22.1493 20.9904 25.7754 15.9873 24.4328 10.0662ZM14.5413 15.8152C14.0667 15.8152 13.5966 15.7217 13.1581 15.54C12.7195 15.3584 12.3211 15.0921 11.9854 14.7565C11.6498 14.4208 11.3835 14.0223 11.2019 13.5838C11.0202 13.1452 10.9267 12.6752 10.9267 12.2005C10.9267 11.7259 11.0202 11.2558 11.2019 10.8173C11.3835 10.3787 11.6498 9.98025 11.9854 9.6446C12.3211 9.30896 12.7195 9.0427 13.1581 8.86105C13.5966 8.6794 14.0667 8.5859 14.5413 8.5859C15.5 8.5859 16.4194 8.96673 17.0973 9.6446C17.7751 10.3225 18.156 11.2419 18.156 12.2005C18.156 13.1592 17.7751 14.0786 17.0973 14.7565C16.4194 15.4343 15.5 15.8152 14.5413 15.8152Z" fill="white"/>
</svg>
