<svg width="20" height="20" viewBox="0 0 20 20" fill="none" xmlns="http://www.w3.org/2000/svg">
<g clip-path="url(#clip0_559_9446)">
<path d="M10.0003 10C9.01137 10 8.04467 9.70676 7.22243 9.15735C6.40018 8.60794 5.75932 7.82705 5.38088 6.91342C5.00244 5.99979 4.90343 4.99446 5.09635 4.02455C5.28928 3.05465 5.76548 2.16373 6.46475 1.46447C7.16401 0.765206 8.05492 0.289002 9.02483 0.0960759C9.99473 -0.0968503 11.0001 0.00216643 11.9137 0.380605C12.8273 0.759043 13.6082 1.39991 14.1576 2.22215C14.707 3.0444 15.0003 4.0111 15.0003 5C14.999 6.32568 14.4717 7.59668 13.5344 8.53407C12.597 9.47147 11.326 9.99868 10.0003 10ZM10.0003 1.66667C9.34101 1.66667 8.69654 1.86217 8.14838 2.22844C7.60021 2.59471 7.17297 3.1153 6.92068 3.72439C6.66839 4.33348 6.60238 5.0037 6.731 5.6503C6.85961 6.29691 7.17708 6.89085 7.64326 7.35703C8.10943 7.8232 8.70337 8.14067 9.34998 8.26929C9.99658 8.3979 10.6668 8.33189 11.2759 8.0796C11.885 7.82731 12.4056 7.40007 12.7718 6.8519C13.1381 6.30374 13.3336 5.65927 13.3336 5C13.3336 4.11595 12.9824 3.2681 12.3573 2.64298C11.7322 2.01786 10.8843 1.66667 10.0003 1.66667Z" fill="#currentColor"/>
<path d="M10.0003 11.4286C12.0834 11.4309 14.0806 12.2444 15.5536 13.6906C17.0266 15.1368 17.8551 17.0977 17.8574 19.1429C17.8574 19.3702 17.7654 19.5883 17.6017 19.749C17.438 19.9097 17.2159 20.0001 16.9844 20.0001C16.7529 20.0001 16.5308 19.9097 16.3671 19.749C16.2034 19.5883 16.1114 19.3702 16.1114 19.1429C16.1114 17.5516 15.4675 16.0255 14.3215 14.9003C13.1754 13.7751 11.621 13.1429 10.0003 13.1429C8.37951 13.1429 6.82513 13.7751 5.67908 14.9003C4.53302 16.0255 3.88917 17.5516 3.88917 19.1429C3.88917 19.3702 3.7972 19.5883 3.63347 19.749C3.46975 19.9097 3.24769 20.0001 3.01616 20.0001C2.78462 20.0001 2.56256 19.9097 2.39884 19.749C2.23512 19.5883 2.14314 19.3702 2.14314 19.1429C2.14545 17.0977 2.974 15.1368 4.447 13.6906C5.92 12.2444 7.91715 11.4309 10.0003 11.4286Z" fill="#currentColor"/>
</g>
<defs>
<clipPath id="clip0_559_9446">
<rect width="20" height="20" fill="white" transform="matrix(-1 0 0 1 20 0)"/>
</clipPath>
</defs>
</svg>
