<svg width="24" height="25" viewBox="0 0 24 25" fill="none" xmlns="http://www.w3.org/2000/svg">
<g clip-path="url(#clip0_532_1751)">
<path d="M23.7068 22.5037L17.7378 16.5347C19.3644 14.5453 20.1642 12.0068 19.9716 9.44428C19.7791 6.88175 18.609 4.49125 16.7034 2.76724C14.7977 1.04323 12.3024 0.117612 9.73342 0.181844C7.16447 0.246075 4.71848 1.29524 2.9014 3.11233C1.08431 4.92942 0.0351378 7.37541 -0.029094 9.94436C-0.0933258 12.5133 0.832292 15.0087 2.5563 16.9143C4.28031 18.8199 6.67081 19.99 9.23334 20.1826C11.7959 20.3751 14.3344 19.5753 16.3238 17.9487L22.2928 23.9177C22.4814 24.0999 22.734 24.2007 22.9962 24.1984C23.2584 24.1961 23.5092 24.0909 23.6946 23.9055C23.88 23.7201 23.9852 23.4693 23.9875 23.2071C23.9897 22.9449 23.8889 22.6923 23.7068 22.5037ZM9.99978 18.2107C8.41753 18.2107 6.87081 17.7415 5.55522 16.8625C4.23963 15.9834 3.21425 14.734 2.60875 13.2722C2.00324 11.8104 1.84482 10.2018 2.1535 8.65C2.46218 7.09815 3.22411 5.67269 4.34293 4.55386C5.46175 3.43504 6.88721 2.67312 8.43906 2.36444C9.99091 2.05576 11.5994 2.21418 13.0612 2.81968C14.5231 3.42518 15.7725 4.45056 16.6515 5.76616C17.5306 7.08175 17.9998 8.62847 17.9998 10.2107C17.9974 12.3317 17.1538 14.3652 15.654 15.8649C14.1542 17.3647 12.1208 18.2083 9.99978 18.2107Z" fill="#D7D7D7"/>
</g>
<defs>
<clipPath id="clip0_532_1751">
<rect width="24" height="24" fill="white" transform="translate(0 0.210022)"/>
</clipPath>
</defs>
</svg>
