<svg width="97" height="96" viewBox="0 0 97 96" fill="none" xmlns="http://www.w3.org/2000/svg">
<mask id="mask0_37_4191" style="mask-type:alpha" maskUnits="userSpaceOnUse" x="0" y="0" width="97" height="96">
<rect x="0.5" width="96" height="96" fill="#D9D9D9"/>
</mask>
<g mask="url(#mask0_37_4191)">
<path d="M8.5 80C6.3 80 4.41667 79.2167 2.85 77.65C1.28333 76.0833 0.5 74.2 0.5 72H16.5C14.3 72 12.4167 71.2167 10.85 69.65C9.28333 68.0833 8.5 66.2 8.5 64V20C8.5 17.8 9.28333 15.9167 10.85 14.35C12.4167 12.7833 14.3 12 16.5 12H80.5C82.7 12 84.5833 12.7833 86.15 14.35C87.7167 15.9167 88.5 17.8 88.5 20V64C88.5 66.2 87.7167 68.0833 86.15 69.65C84.5833 71.2167 82.7 72 80.5 72H96.5C96.5 74.2 95.7167 76.0833 94.15 77.65C92.5833 79.2167 90.7 80 88.5 80H8.5ZM48.5 76C49.6333 76 50.5833 75.6167 51.35 74.85C52.1167 74.0833 52.5 73.1333 52.5 72C52.5 70.8667 52.1167 69.9167 51.35 69.15C50.5833 68.3833 49.6333 68 48.5 68C47.3667 68 46.4167 68.3833 45.65 69.15C44.8833 69.9167 44.5 70.8667 44.5 72C44.5 73.1333 44.8833 74.0833 45.65 74.85C46.4167 75.6167 47.3667 76 48.5 76ZM16.5 64H80.5V20H16.5V64Z" fill="white"/>
</g>
</svg>
