<svg width="97" height="96" viewBox="0 0 97 96" fill="none" xmlns="http://www.w3.org/2000/svg">
<mask id="mask0_36_3809" style="mask-type:alpha" maskUnits="userSpaceOnUse" x="0" y="0" width="97" height="96">
<rect x="0.166504" width="96" height="96" fill="#D9D9D9"/>
</mask>
<g mask="url(#mask0_36_3809)">
<path d="M44.3665 58L60.9665 47.4C62.1665 46.6 62.7665 45.4667 62.7665 44C62.7665 42.5333 62.1665 41.4 60.9665 40.6L44.3665 30C43.0332 29.1333 41.6665 29.0667 40.2665 29.8C38.8665 30.5333 38.1665 31.7 38.1665 33.3V54.7C38.1665 56.3 38.8665 57.4667 40.2665 58.2C41.6665 58.9333 43.0332 58.8667 44.3665 58ZM16.1665 76C13.9665 76 12.0832 75.2167 10.5165 73.65C8.94984 72.0833 8.1665 70.2 8.1665 68V20C8.1665 17.8 8.94984 15.9167 10.5165 14.35C12.0832 12.7833 13.9665 12 16.1665 12H80.1665C82.3665 12 84.2498 12.7833 85.8165 14.35C87.3832 15.9167 88.1665 17.8 88.1665 20V68C88.1665 70.2 87.3832 72.0833 85.8165 73.65C84.2498 75.2167 82.3665 76 80.1665 76H64.1665V80C64.1665 81.1333 63.7832 82.0833 63.0165 82.85C62.2498 83.6167 61.2998 84 60.1665 84H36.1665C35.0332 84 34.0832 83.6167 33.3165 82.85C32.5498 82.0833 32.1665 81.1333 32.1665 80V76H16.1665ZM16.1665 68H80.1665V20H16.1665V68Z" fill="white"/>
</g>
</svg>
