<svg width="125" height="38" viewBox="0 0 125 38" fill="none" xmlns="http://www.w3.org/2000/svg">
<g clip-path="url(#clip0_128_10497)">
<path d="M120.553 37.975H4.3787C1.96481 37.975 0 36.0066 0 33.597V5.34653C0 2.93598 1.96481 0.974976 4.3787 0.974976H120.553C122.966 0.974976 125 2.93598 125 5.34653V33.597C125 36.0066 122.966 37.975 120.553 37.975Z" fill="#3A3A3A"/>
<path d="M124.104 33.5979C124.104 35.5552 122.517 37.1406 120.554 37.1406H4.37885C2.41681 37.1406 0.824219 35.5552 0.824219 33.5979V5.34559C0.824219 3.38922 2.41681 1.79822 4.37885 1.79822H120.553C122.517 1.79822 124.103 3.38922 124.103 5.34559L124.104 33.5979Z" fill="#121212"/>
<path d="M27.8957 19.2745C27.8688 16.2932 30.3392 14.8428 30.4522 14.7753C29.0531 12.7375 26.8846 12.4591 26.1225 12.4369C24.3012 12.2454 22.5346 13.5256 21.6068 13.5256C20.6605 13.5256 19.2318 12.4554 17.692 12.4868C15.7105 12.5174 13.8568 13.6634 12.8401 15.4431C10.742 19.0719 12.3068 24.4045 14.317 27.3377C15.3225 28.7742 16.4975 30.3782 18.0355 30.3218C19.5401 30.2598 20.1022 29.3635 21.9179 29.3635C23.717 29.3635 24.2448 30.3218 25.8133 30.2857C27.4281 30.2598 28.4448 28.8427 29.4151 27.3932C30.5772 25.7467 31.0438 24.1252 31.0624 24.0419C31.0244 24.029 27.9262 22.8478 27.8957 19.2745Z" fill="white"/>
<path d="M24.933 10.5073C25.7423 9.49627 26.296 8.1208 26.1423 6.72498C24.971 6.77678 23.5062 7.53435 22.6627 8.52318C21.9164 9.39453 21.2497 10.8227 21.4219 12.1658C22.7377 12.2639 24.0886 11.5026 24.933 10.5073Z" fill="white"/>
<path d="M49.6723 30.1169H47.5695L46.4177 26.5011H42.414L41.3168 30.1169H39.2695L43.2362 17.807H45.6862L49.6723 30.1169ZM46.0705 24.9841L45.0288 21.7697C44.9186 21.4413 44.7121 20.668 44.4075 19.4507H44.3705C44.2492 19.9743 44.0538 20.7476 43.7853 21.7697L42.7621 24.9841H46.0705Z" fill="white"/>
<path d="M59.8729 25.5692C59.8729 27.0788 59.4646 28.2721 58.6479 29.148C57.9164 29.9278 57.0081 30.3172 55.9238 30.3172C54.7534 30.3172 53.9127 29.8973 53.4007 29.0574H53.3636V33.7333H51.3896V24.1623C51.3896 23.2132 51.3646 22.2392 51.3164 21.2402H53.0525L53.1627 22.6471H53.1997C53.8581 21.5871 54.8571 21.058 56.1979 21.058C57.246 21.058 58.121 21.4715 58.821 22.2993C59.5229 23.1281 59.8729 24.2178 59.8729 25.5692ZM57.8618 25.6414C57.8618 24.7774 57.6673 24.0652 57.2766 23.5046C56.8497 22.92 56.2766 22.6277 55.5581 22.6277C55.071 22.6277 54.6284 22.7905 54.2331 23.1115C53.8368 23.4352 53.5775 23.858 53.4562 24.3815C53.3951 24.6257 53.3646 24.8255 53.3646 24.9828V26.4628C53.3646 27.1084 53.5627 27.6532 53.959 28.0982C54.3553 28.5431 54.8701 28.7651 55.5034 28.7651C56.247 28.7651 56.8257 28.4783 57.2396 27.9067C57.6544 27.3341 57.8618 26.5793 57.8618 25.6414Z" fill="white"/>
<path d="M70.0927 25.5692C70.0927 27.0788 69.6843 28.2721 68.8667 29.148C68.1362 29.9278 67.2278 30.3172 66.1436 30.3172C64.9732 30.3172 64.1325 29.8973 63.6214 29.0574H63.5843V33.7333H61.6103V24.1623C61.6103 23.2132 61.5853 22.2392 61.5371 21.2402H63.2732L63.3834 22.6471H63.4204C64.0778 21.5871 65.0769 21.058 66.4186 21.058C67.4658 21.058 68.3408 21.4715 69.0427 22.2993C69.7417 23.1281 70.0927 24.2178 70.0927 25.5692ZM68.0816 25.6414C68.0816 24.7774 67.8862 24.0652 67.4954 23.5046C67.0686 22.92 66.4973 22.6277 65.7779 22.6277C65.2899 22.6277 64.8482 22.7905 64.4519 23.1115C64.0556 23.4352 63.7973 23.858 63.676 24.3815C63.6158 24.6257 63.5843 24.8255 63.5843 24.9828V26.4628C63.5843 27.1084 63.7825 27.6532 64.1769 28.0982C64.5732 28.5422 65.088 28.7651 65.7232 28.7651C66.4667 28.7651 67.0454 28.4783 67.4593 27.9067C67.8741 27.3341 68.0816 26.5793 68.0816 25.6414Z" fill="white"/>
<path d="M81.5194 26.6645C81.5194 27.7116 81.1556 28.5635 80.425 29.2212C79.6222 29.9399 78.5046 30.2988 77.0685 30.2988C75.7426 30.2988 74.6796 30.0435 73.875 29.532L74.3324 27.8883C75.1991 28.4118 76.15 28.6745 77.1861 28.6745C77.9296 28.6745 78.5083 28.5062 78.9241 28.1713C79.338 27.8365 79.5444 27.3869 79.5444 26.8264C79.5444 26.3269 79.3741 25.906 79.0324 25.5647C78.6926 25.2234 78.125 24.9061 77.3324 24.6129C75.175 23.809 74.0972 22.6315 74.0972 21.0831C74.0972 20.0711 74.475 19.2414 75.2315 18.5957C75.9852 17.9492 76.9907 17.6263 78.2481 17.6263C79.3694 17.6263 80.3009 17.8215 81.0444 18.2109L80.5509 19.8186C79.8565 19.4412 79.0713 19.2525 78.1926 19.2525C77.4982 19.2525 76.9556 19.4236 76.5667 19.764C76.238 20.0683 76.0731 20.4393 76.0731 20.8786C76.0731 21.3652 76.2611 21.7676 76.6389 22.0839C76.9676 22.3762 77.5648 22.6926 78.4315 23.0339C79.4917 23.4603 80.2704 23.9589 80.7713 24.5305C81.2704 25.1003 81.5194 25.8135 81.5194 26.6645Z" fill="white"/>
<path d="M88.0459 22.7204H85.8699V27.0299C85.8699 28.1261 86.2533 28.6737 87.0218 28.6737C87.3746 28.6737 87.6672 28.6431 87.8987 28.5821L87.9533 30.0797C87.5644 30.2249 87.0524 30.298 86.4181 30.298C85.6385 30.298 85.0292 30.0602 84.5894 29.5857C84.1514 29.1103 83.9311 28.3129 83.9311 27.1927V22.7185H82.6348V21.2385H83.9311V19.6133L85.8699 19.0287V21.2385H88.0459V22.7204Z" fill="white"/>
<path d="M97.8629 25.6053C97.8629 26.9697 97.4722 28.0899 96.6926 28.9659C95.875 29.8677 94.7898 30.3173 93.437 30.3173C92.1333 30.3173 91.0953 29.8853 90.3213 29.0214C89.5472 28.1574 89.1602 27.0668 89.1602 25.7524C89.1602 24.3769 89.5583 23.2503 90.3574 22.3743C91.1546 21.4974 92.2305 21.059 93.5833 21.059C94.887 21.059 95.9361 21.4909 96.7277 22.3558C97.4852 23.1948 97.8629 24.278 97.8629 25.6053ZM95.8148 25.6692C95.8148 24.8505 95.6398 24.1485 95.2852 23.5629C94.8713 22.8544 94.2796 22.501 93.5129 22.501C92.7194 22.501 92.1166 22.8553 91.7028 23.5629C91.3481 24.1494 91.1731 24.8626 91.1731 25.7062C91.1731 26.5248 91.3481 27.2269 91.7028 27.8115C92.1296 28.52 92.7259 28.8734 93.4953 28.8734C94.249 28.8734 94.8407 28.5126 95.2676 27.793C95.6315 27.1963 95.8148 26.4869 95.8148 25.6692Z" fill="white"/>
<path d="M104.279 22.9748C104.084 22.9388 103.875 22.9203 103.657 22.9203C102.962 22.9203 102.425 23.182 102.048 23.7065C101.719 24.169 101.554 24.7536 101.554 25.4594V30.1168H99.5809L99.5995 24.0358C99.5995 23.0128 99.5745 22.0813 99.5254 21.2414H101.245L101.317 22.9397H101.372C101.58 22.356 101.909 21.8861 102.359 21.5337C102.799 21.2164 103.274 21.0582 103.786 21.0582C103.968 21.0582 104.133 21.0712 104.279 21.0943V22.9748Z" fill="white"/>
<path d="M113.107 25.2585C113.107 25.6118 113.084 25.9097 113.035 26.1529H107.113C107.136 27.0298 107.422 27.7005 107.972 28.163C108.471 28.5764 109.116 28.7836 109.909 28.7836C110.786 28.7836 111.586 28.644 112.305 28.3637L112.615 29.7327C111.774 30.099 110.781 30.2812 109.636 30.2812C108.258 30.2812 107.177 29.8761 106.39 29.0667C105.604 28.2573 105.211 27.1704 105.211 25.807C105.211 24.4685 105.577 23.3539 106.309 22.465C107.076 21.5159 108.112 21.0414 109.416 21.0414C110.696 21.0414 111.666 21.5159 112.324 22.465C112.845 23.2188 113.107 24.1512 113.107 25.2585ZM111.225 24.7469C111.238 24.1623 111.109 23.6573 110.841 23.2309C110.5 22.6823 109.975 22.4085 109.268 22.4085C108.623 22.4085 108.098 22.6759 107.697 23.2124C107.368 23.6388 107.173 24.1503 107.113 24.746H111.225V24.7469Z" fill="white"/>
<path d="M45.4173 10.2328C45.4173 11.3215 45.0905 12.1411 44.4377 12.6914C43.8331 13.1993 42.9738 13.4536 41.8609 13.4536C41.309 13.4536 40.8368 13.4296 40.4414 13.3815V7.43281C40.9571 7.34956 41.5127 7.30701 42.1127 7.30701C43.1729 7.30701 43.972 7.53733 44.5109 7.99798C45.1146 8.51876 45.4173 9.26338 45.4173 10.2328ZM44.3942 10.2596C44.3942 9.55383 44.2071 9.01271 43.8331 8.63531C43.459 8.25883 42.9127 8.07013 42.1933 8.07013C41.8877 8.07013 41.6275 8.09048 41.4118 8.13303V12.6554C41.5312 12.6739 41.7497 12.6822 42.0673 12.6822C42.8099 12.6822 43.3831 12.4759 43.7868 12.0634C44.1905 11.6508 44.3942 11.0496 44.3942 10.2596Z" fill="white"/>
<path d="M50.8434 11.1844C50.8434 11.855 50.6517 12.4044 50.2684 12.8355C49.8665 13.2786 49.3341 13.4996 48.6693 13.4996C48.0285 13.4996 47.5184 13.2878 47.1378 12.8623C46.7582 12.4377 46.5684 11.9022 46.5684 11.2565C46.5684 10.5813 46.7637 10.0272 47.1563 9.59707C47.5489 9.16694 48.0767 8.95142 48.7415 8.95142C49.3822 8.95142 49.8971 9.16324 50.2869 9.58782C50.6572 10.0004 50.8434 10.5332 50.8434 11.1844ZM49.8369 11.2158C49.8369 10.8134 49.7498 10.4684 49.5767 10.1807C49.373 9.83294 49.0832 9.65904 48.7063 9.65904C48.3165 9.65904 48.0202 9.83294 47.8165 10.1807C47.6424 10.4684 47.5563 10.819 47.5563 11.2334C47.5563 11.6358 47.6434 11.9808 47.8165 12.2685C48.0267 12.6163 48.3193 12.7902 48.6971 12.7902C49.0674 12.7902 49.3582 12.6135 49.5674 12.2592C49.7471 11.966 49.8369 11.6182 49.8369 11.2158Z" fill="white"/>
<path d="M58.117 9.04041L56.7513 13.4009H55.8624L55.2967 11.5074C55.1532 11.0347 55.0365 10.5648 54.9457 10.0986H54.9282C54.8439 10.5778 54.7272 11.0467 54.5772 11.5074L53.9763 13.4009H53.0772L51.793 9.04041H52.7902L53.2837 11.1133C53.4032 11.6036 53.5013 12.0707 53.58 12.5129H53.5976C53.6698 12.1484 53.7893 11.6841 53.9578 11.1226L54.5772 9.04133H55.368L55.9615 11.0782C56.105 11.5749 56.2217 12.0531 56.3115 12.5138H56.3383C56.4041 12.0652 56.5032 11.5869 56.6346 11.0782L57.1643 9.04133H58.117V9.04041Z" fill="white"/>
<path d="M63.1462 13.4006H62.1759V10.9031C62.1759 10.1335 61.8833 9.74873 61.2962 9.74873C61.0083 9.74873 60.7759 9.85418 60.5953 10.066C60.4166 10.2778 60.3259 10.5276 60.3259 10.8134V13.3997H59.3555V10.2862C59.3555 9.90321 59.3435 9.48788 59.3203 9.03833H60.1731L60.2185 9.72006H60.2453C60.3583 9.50823 60.5268 9.33341 60.7481 9.19373C61.0111 9.03093 61.3055 8.94861 61.6277 8.94861C62.0351 8.94861 62.374 9.07996 62.6435 9.34358C62.9786 9.66641 63.1462 10.1483 63.1462 10.7884V13.4006Z" fill="white"/>
<path d="M65.823 13.4007H64.8535V7.03943H65.823V13.4007Z" fill="white"/>
<path d="M71.5367 11.1844C71.5367 11.855 71.3451 12.4044 70.9617 12.8355C70.5599 13.2786 70.0265 13.4996 69.3626 13.4996C68.721 13.4996 68.2108 13.2878 67.8312 12.8623C67.4515 12.4377 67.2617 11.9022 67.2617 11.2565C67.2617 10.5813 67.4571 10.0272 67.8497 9.59707C68.2423 9.16694 68.7701 8.95142 69.4339 8.95142C70.0756 8.95142 70.5895 9.16324 70.9802 9.58782C71.3506 10.0004 71.5367 10.5332 71.5367 11.1844ZM70.5293 11.2158C70.5293 10.8134 70.4423 10.4684 70.2691 10.1807C70.0663 9.83294 69.7756 9.65904 69.3997 9.65904C69.0089 9.65904 68.7126 9.83294 68.5099 10.1807C68.3358 10.4684 68.2497 10.819 68.2497 11.2334C68.2497 11.6358 68.3367 11.9808 68.5099 12.2685C68.7201 12.6163 69.0126 12.7902 69.3904 12.7902C69.7608 12.7902 70.0506 12.6135 70.2599 12.2592C70.4404 11.966 70.5293 11.6182 70.5293 11.2158Z" fill="white"/>
<path d="M76.2318 13.4008H75.3605L75.2883 12.8985H75.2614C74.9633 13.299 74.5383 13.4998 73.9864 13.4998C73.5744 13.4998 73.241 13.3675 72.9901 13.1048C72.7623 12.8661 72.6484 12.5692 72.6484 12.2168C72.6484 11.684 72.8707 11.2779 73.3179 10.9967C73.7642 10.7155 74.392 10.5777 75.2003 10.5842V10.5028C75.2003 9.92834 74.8984 9.64159 74.2938 9.64159C73.8633 9.64159 73.4836 9.74981 73.1558 9.96441L72.9586 9.32801C73.3642 9.07734 73.8651 8.95154 74.4558 8.95154C75.5966 8.95154 76.1688 9.55279 76.1688 10.7553V12.3611C76.1688 12.7968 76.1901 13.1436 76.2318 13.4008ZM75.2244 11.9023V11.2298C74.154 11.2113 73.6188 11.5045 73.6188 12.1086C73.6188 12.3361 73.6799 12.5063 73.8049 12.6201C73.9299 12.7339 74.0892 12.7903 74.279 12.7903C74.492 12.7903 74.691 12.7228 74.8725 12.5886C75.0549 12.4536 75.167 12.2825 75.2086 12.0725C75.2188 12.0253 75.2244 11.968 75.2244 11.9023Z" fill="white"/>
<path d="M81.7448 13.4007H80.8837L80.8383 12.7004H80.8115C80.5365 13.2332 80.0679 13.4996 79.4096 13.4996C78.8837 13.4996 78.4457 13.2934 78.0985 12.8808C77.7513 12.4683 77.5781 11.9327 77.5781 11.275C77.5781 10.5692 77.7661 9.99758 78.1439 9.56098C78.5096 9.15398 78.9577 8.95048 79.4911 8.95048C80.0772 8.95048 80.4874 9.1475 80.7207 9.54248H80.7392V7.03943H81.7105V12.2259C81.7105 12.6505 81.7216 13.0418 81.7448 13.4007ZM80.7392 11.5618V10.8347C80.7392 10.7089 80.73 10.6072 80.7124 10.5295C80.6577 10.2964 80.5402 10.1003 80.3615 9.94208C80.1809 9.7839 79.9633 9.70435 79.7124 9.70435C79.3503 9.70435 79.067 9.84773 78.8587 10.1354C78.6522 10.4231 78.5476 10.7903 78.5476 11.2389C78.5476 11.67 78.6466 12.0196 78.8457 12.2888C79.0559 12.5756 79.3392 12.7189 79.6939 12.7189C80.0124 12.7189 80.267 12.5996 80.4605 12.36C80.6476 12.139 80.7392 11.8726 80.7392 11.5618Z" fill="white"/>
<path d="M90.0445 11.1845C90.0445 11.8551 89.8529 12.4046 89.4695 12.8356C89.0677 13.2787 88.5362 13.4998 87.8705 13.4998C87.2306 13.4998 86.7205 13.2879 86.339 12.8624C85.9594 12.4379 85.7695 11.9023 85.7695 11.2566C85.7695 10.5814 85.9649 10.0273 86.3575 9.59719C86.7501 9.16706 87.2779 8.95154 87.9436 8.95154C88.5834 8.95154 89.0992 9.16336 89.4881 9.58794C89.8584 10.0005 90.0445 10.5333 90.0445 11.1845ZM89.039 11.2159C89.039 10.8136 88.9519 10.4685 88.7788 10.1809C88.5742 9.83306 88.2853 9.65916 87.9075 9.65916C87.5186 9.65916 87.2223 9.83306 87.0177 10.1809C86.8436 10.4685 86.7575 10.8191 86.7575 11.2335C86.7575 11.6359 86.8445 11.9809 87.0177 12.2686C87.2279 12.6164 87.5205 12.7903 87.8982 12.7903C88.2686 12.7903 88.5603 12.6136 88.7695 12.2593C88.9482 11.9661 89.039 11.6183 89.039 11.2159Z" fill="white"/>
<path d="M95.2625 13.4005H94.2931V10.903C94.2931 10.1334 94.0005 9.74861 93.4125 9.74861C93.1245 9.74861 92.8921 9.85406 92.7125 10.0659C92.5329 10.2777 92.4431 10.5275 92.4431 10.8133V13.3996H91.4718V10.286C91.4718 9.90309 91.4606 9.48776 91.4375 9.03821H92.2894L92.3347 9.71994H92.3616C92.4755 9.50811 92.644 9.33329 92.8644 9.19361C93.1282 9.03081 93.4218 8.94849 93.7449 8.94849C94.1514 8.94849 94.4903 9.07984 94.7597 9.34346C95.0958 9.66629 95.2625 10.1482 95.2625 10.7883V13.4005Z" fill="white"/>
<path d="M101.793 9.76654H100.725V11.8848C100.725 12.4231 100.914 12.6923 101.29 12.6923C101.464 12.6923 101.609 12.6775 101.723 12.647L101.748 13.3824C101.556 13.4545 101.304 13.4906 100.994 13.4906C100.611 13.4906 100.313 13.374 100.097 13.1409C99.8801 12.9078 99.7727 12.5156 99.7727 11.9653V9.76654H99.1348V9.04042H99.7727V8.24122L100.724 7.95447V9.03949H101.792V9.76654H101.793Z" fill="white"/>
<path d="M106.929 13.4007H105.958V10.9217C105.958 10.14 105.666 9.74875 105.079 9.74875C104.629 9.74875 104.322 9.97538 104.153 10.4286C104.125 10.5239 104.108 10.6405 104.108 10.7774V13.3997H103.139V7.03943H104.108V9.66735H104.127C104.432 9.18913 104.87 8.95048 105.438 8.95048C105.84 8.95048 106.172 9.08183 106.436 9.34545C106.765 9.67383 106.929 10.1622 106.929 10.8079V13.4007Z" fill="white"/>
<path d="M112.228 11.0138C112.228 11.1877 112.215 11.3339 112.192 11.4532H109.282C109.295 11.8842 109.434 12.2126 109.703 12.4402C109.95 12.6437 110.267 12.7454 110.656 12.7454C111.087 12.7454 111.479 12.677 111.833 12.5391L111.985 13.2125C111.571 13.392 111.084 13.4817 110.52 13.4817C109.844 13.4817 109.312 13.2828 108.926 12.8851C108.539 12.4873 108.348 11.9536 108.348 11.2839C108.348 10.6262 108.526 10.0786 108.887 9.64205C109.262 9.17585 109.771 8.94275 110.412 8.94275C111.04 8.94275 111.517 9.17585 111.839 9.64205C112.1 10.012 112.228 10.4699 112.228 11.0138ZM111.302 10.7631C111.31 10.4755 111.246 10.2276 111.114 10.0185C110.946 9.74935 110.689 9.6143 110.342 9.6143C110.025 9.6143 109.767 9.74565 109.57 10.0093C109.409 10.2192 109.313 10.4699 109.282 10.7631H111.302Z" fill="white"/>
</g>
<defs>
<clipPath id="clip0_128_10497">
<rect width="125" height="37" fill="white" transform="translate(0 0.974976)"/>
</clipPath>
</defs>
</svg>
