<svg width="16" height="20" viewBox="0 0 16 20" fill="#currentColor" xmlns="http://www.w3.org/2000/svg">
<path d="M8.00167 9.99995C8.99058 9.99995 9.95728 9.70671 10.7795 9.1573C11.6018 8.60789 12.2426 7.827 12.6211 6.91337C12.9995 5.99974 13.0985 4.99441 12.9056 4.0245C12.7127 3.0546 12.2365 2.16368 11.5372 1.46442C10.8379 0.765156 9.94703 0.288952 8.97713 0.0960263C8.00722 -0.0968999 7.00189 0.00211684 6.08826 0.380555C5.17463 0.758993 4.39373 1.39986 3.84433 2.2221C3.29492 3.04435 3.00167 4.01105 3.00167 4.99995C3.003 6.32563 3.53021 7.59663 4.4676 8.53403C5.405 9.47142 6.676 9.99863 8.00167 9.99995ZM8.00167 1.66662C8.66094 1.66662 9.30541 1.86212 9.85357 2.22839C10.4017 2.59466 10.829 3.11525 11.0813 3.72434C11.3336 4.33343 11.3996 5.00365 11.271 5.65025C11.1423 6.29686 10.8249 6.8908 10.3587 7.35698C9.89252 7.82315 9.29858 8.14062 8.65197 8.26924C8.00537 8.39785 7.33515 8.33184 6.72606 8.07955C6.11697 7.82726 5.59638 7.40002 5.23011 6.85185C4.86384 6.30369 4.66834 5.65922 4.66834 4.99995C4.66834 4.1159 5.01953 3.26805 5.64465 2.64293C6.26977 2.01781 7.11762 1.66662 8.00167 1.66662Z" fill="#currentColor"/>
<path d="M8.00167 11.4286C5.91854 11.4308 3.92139 12.2443 2.44839 13.6905C0.975387 15.1368 0.146842 17.0976 0.144531 19.1429C0.144531 19.3702 0.236509 19.5882 0.400232 19.749C0.563954 19.9097 0.786009 20 1.01755 20C1.24908 20 1.47114 19.9097 1.63486 19.749C1.79858 19.5882 1.89056 19.3702 1.89056 19.1429C1.89056 17.5516 2.53441 16.0254 3.68046 14.9002C4.82652 13.775 6.3809 13.1429 8.00167 13.1429C9.62244 13.1429 11.1768 13.775 12.3229 14.9002C13.4689 16.0254 14.1128 17.5516 14.1128 19.1429C14.1128 19.3702 14.2048 19.5882 14.3685 19.749C14.5322 19.9097 14.7543 20 14.9858 20C15.2173 20 15.4394 19.9097 15.6031 19.749C15.7668 19.5882 15.8588 19.3702 15.8588 19.1429C15.8565 17.0976 15.028 15.1368 13.555 13.6905C12.082 12.2443 10.0848 11.4308 8.00167 11.4286Z" fill="#currentColor"/>
</svg>
