<svg width="24" height="25" viewBox="0 0 24 25" fill="none" xmlns="http://www.w3.org/2000/svg">
<path d="M23.121 9.27895L15.536 1.69295C14.5973 0.756939 13.3257 0.231323 12 0.231323C10.6744 0.231323 9.40277 0.756939 8.46401 1.69295L0.879012 9.27895C0.599438 9.55673 0.377782 9.88725 0.226895 10.2513C0.0760072 10.6154 -0.0011104 11.0058 1.20795e-05 11.3999V21.2169C1.20795e-05 22.0126 0.316083 22.7757 0.878692 23.3383C1.4413 23.9009 2.20436 24.2169 3.00001 24.2169H21C21.7957 24.2169 22.5587 23.9009 23.1213 23.3383C23.6839 22.7757 24 22.0126 24 21.2169V11.3999C24.0011 11.0058 23.924 10.6154 23.7731 10.2513C23.6222 9.88725 23.4006 9.55673 23.121 9.27895ZM15 22.2169H9.00001V18.2829C9.00001 17.4873 9.31608 16.7242 9.87869 16.1616C10.4413 15.599 11.2044 15.2829 12 15.2829C12.7957 15.2829 13.5587 15.599 14.1213 16.1616C14.6839 16.7242 15 17.4873 15 18.2829V22.2169ZM22 21.2169C22 21.4822 21.8947 21.7365 21.7071 21.9241C21.5196 22.1116 21.2652 22.2169 21 22.2169H17V18.2829C17 16.9569 16.4732 15.6851 15.5355 14.7474C14.5979 13.8097 13.3261 13.2829 12 13.2829C10.6739 13.2829 9.40216 13.8097 8.46448 14.7474C7.5268 15.6851 7.00001 16.9569 7.00001 18.2829V22.2169H3.00001C2.7348 22.2169 2.48044 22.1116 2.29291 21.9241C2.10537 21.7365 2.00001 21.4822 2.00001 21.2169V11.3999C2.00094 11.1349 2.1062 10.8809 2.29301 10.6929L9.87801 3.10995C10.4417 2.54888 11.2047 2.23389 12 2.23389C12.7953 2.23389 13.5583 2.54888 14.122 3.10995L21.707 10.6959C21.8931 10.8832 21.9983 11.136 22 11.3999V21.2169Z" fill="white"/>
</svg>
