<svg width="132" height="38" viewBox="0 0 132 38" fill="none" xmlns="http://www.w3.org/2000/svg">
<g clip-path="url(#clip0_128_10529)">
<path d="M127.304 37.975H4.62391C2.07484 37.975 0 36.0066 0 33.597V5.34653C0 2.93598 2.07484 0.974976 4.62391 0.974976H127.304C129.852 0.974976 132 2.93598 132 5.34653V33.597C132 36.0066 129.852 37.975 127.304 37.975Z" fill="#3A3A3A"/>
<path d="M131.054 33.5979C131.054 35.5552 129.378 37.1406 127.306 37.1406H4.62478C2.55287 37.1406 0.871094 35.5552 0.871094 33.5979V5.34559C0.871094 3.38922 2.55287 1.79822 4.62478 1.79822H127.305C129.379 1.79822 131.053 3.38922 131.053 5.34559L131.054 33.5979Z" fill="#121212"/>
<path d="M61.0637 16.4573V23.4982L55.5918 19.5536L61.0637 16.4573Z" fill="#095585"/>
<path d="M50.1602 16.4573V23.4982L55.632 19.5536L50.1602 16.4573Z" fill="#9DA844"/>
<path d="M55.6328 9.35193L48.5527 13.4026L55.6328 13.3814V9.35193Z" fill="#FFDA00"/>
<path d="M55.6328 9.35193L62.692 13.4026L55.6328 13.3814V9.35193Z" fill="#EDC0BF"/>
<path d="M55.6334 19.5531L48.5742 24.5793H55.6334V19.5531Z" fill="#D5D10F"/>
<path d="M55.6328 19.5531L62.692 24.5793H55.6328V19.5531Z" fill="#38B3FF"/>
<path d="M48.5742 24.5795H55.6125V29.4784L48.5742 24.5795Z" fill="#F5E882"/>
<path d="M62.6711 24.5796H55.6328V29.4785L62.6711 24.5796Z" fill="#ABE1FA"/>
<path d="M48.5742 13.3812H55.6543V17.3682L48.5742 13.3812Z" fill="#F68B1F"/>
<path d="M62.7129 13.3812H55.6328V17.3682L62.7129 13.3812Z" fill="#EE478A"/>
<path d="M62.6925 24.6V13.3812L55.6334 17.3682L48.5742 13.3812V24.6L50.1615 25.6816V16.4563L55.6334 19.5314L61.0844 16.4563V25.6816L62.6925 24.6Z" fill="white"/>
<path d="M83.4935 20.5286C84.0991 20.2953 84.6004 19.9135 84.9972 19.4046C85.4775 18.7895 85.7282 18.0473 85.7282 17.199C85.7282 16.6476 85.6237 16.1386 85.4567 15.6932C85.2687 15.2479 84.9763 14.8449 84.6213 14.5056C84.2453 14.1875 83.8067 13.933 83.2846 13.7422C82.7625 13.5725 82.1777 13.4877 81.5094 13.4877H76.9355V25.788H78.5437V15.057H81.5094C82.3657 15.057 83.0131 15.2479 83.4726 15.6084C83.9112 15.9689 84.12 16.4779 84.12 17.199C84.12 17.8988 83.9112 18.429 83.4726 18.7683C83.034 19.1501 82.3657 19.3197 81.5094 19.3197H79.5462V20.8679H81.9062L84.1618 25.7668H85.9161L83.4935 20.5286Z" fill="white"/>
<path d="M87.0859 13.5092V15.0785H90.7408V25.7883H92.3281V15.0785H95.983V13.5092H87.0859Z" fill="white"/>
<path d="M70.3364 13.5082H68.9998L64.3633 25.7873H66.055L67.5169 21.9488L71.9237 21.97L73.3856 25.7873H75.0564L70.3364 13.5082ZM68.0391 20.4854L69.6681 16.1167L71.3389 20.4854H68.0391Z" fill="white"/>
<path d="M46.1732 21.0158C46.0061 20.6128 45.7764 20.2523 45.484 19.9342C45.1916 19.6373 44.8365 19.3828 44.4397 19.1707C44.0429 18.9799 43.5834 18.8314 43.1031 18.7678L40.931 18.4921C40.7013 18.4709 40.4716 18.4073 40.2418 18.3224C40.033 18.2588 39.8659 18.1528 39.7197 18.0255C39.5735 17.8983 39.4691 17.7498 39.3647 17.559C39.2811 17.3681 39.2393 17.1348 39.2393 16.8379C39.2393 16.5198 39.302 16.2653 39.4064 16.0532C39.5317 15.82 39.6988 15.6079 39.8868 15.4594C40.1165 15.2474 40.4089 15.0989 40.7222 15.0141C41.0772 14.908 41.4323 14.8656 41.8082 14.8656C42.2886 14.8656 42.7272 14.9504 43.124 15.0989C43.4999 15.2474 43.7923 15.4594 44.0011 15.7351C44.1682 15.926 44.2726 16.1169 44.3562 16.3077C44.4397 16.5198 44.5024 16.7531 44.5442 17.0076L44.5859 17.3257H46.1941L46.1523 16.9227C46.1105 16.4562 46.0061 16.0532 45.839 15.6927C45.6719 15.3322 45.4422 15.0141 45.1916 14.696C44.8365 14.2718 44.3353 13.9325 43.7088 13.678C43.1031 13.4235 42.4556 13.2963 41.7873 13.2963C41.2025 13.2963 40.6386 13.4023 40.1165 13.572C39.5735 13.7628 39.0931 14.0385 38.6963 14.3991C38.3831 14.696 38.1115 15.0353 37.9027 15.417C37.673 15.82 37.5685 16.3077 37.5685 16.8591C37.5685 17.3469 37.6521 17.7923 37.8192 18.174C37.9862 18.5557 38.216 18.895 38.4875 19.1707C38.759 19.4464 39.114 19.6585 39.49 19.8282C39.8659 19.9766 40.2627 20.0827 40.7222 20.1463L42.8525 20.422C43.1449 20.4644 43.4372 20.5492 43.667 20.6553C43.8967 20.7825 44.1056 20.9098 44.2726 21.0794C44.4397 21.2491 44.565 21.4399 44.6486 21.6308C44.7321 21.8217 44.7739 22.055 44.7739 22.267C44.7739 22.5851 44.7321 22.8396 44.6277 23.0729C44.5233 23.3062 44.3771 23.4971 44.21 23.6455C43.9385 23.9 43.6043 24.0909 43.2075 24.2181C42.7898 24.3454 42.3303 24.409 41.8709 24.409C41.4323 24.409 40.9937 24.3242 40.6178 24.1969C40.2418 24.0697 39.9077 23.8576 39.6362 23.5819C39.4482 23.391 39.2811 23.1577 39.1558 22.882C39.0305 22.6064 38.947 22.3307 38.9052 22.0337L38.8634 21.6944H37.2344L37.2761 22.1186C37.3179 22.6064 37.4432 23.0729 37.6521 23.4971C37.84 23.9212 38.1115 24.303 38.4248 24.6423C38.8425 25.0876 39.3647 25.4482 39.9703 25.6602C40.5551 25.8723 41.2234 25.9996 41.9126 25.9996C42.6227 25.9996 43.2702 25.8935 43.8758 25.7026C44.4815 25.4906 45.0036 25.1937 45.4422 24.7695C45.7346 24.4726 45.9852 24.1333 46.1732 23.7303C46.3612 23.3274 46.4656 22.8396 46.4656 22.2882C46.4238 21.8429 46.3403 21.4187 46.1732 21.0158Z" fill="white"/>
<path d="M111.669 25.8306H112.734L117.412 13.4454H116.201L112.212 24.0704L108.139 13.4454H99.2422V14.5906H103.064V25.8306H104.234V14.5906H107.387L111.669 25.8306Z" fill="white"/>
<path d="M61.0629 16.4563V25.7028L62.692 24.6V13.3812L55.6328 17.3894V19.5314L61.0629 16.4563Z" fill="#DCDDDE"/>
<path d="M11.0644 19.0872C10.5422 18.8964 10.3752 18.4722 10.3752 18.0481V17.942C10.3752 17.2422 10.772 16.8392 11.5656 16.8392H11.9624C12.589 16.8392 12.9649 17.1149 12.9649 17.7724C12.9649 17.9208 12.8814 18.0693 12.6725 18.0693C12.4637 18.0693 12.3801 17.9208 12.3801 17.7724C12.3801 17.5179 12.1922 17.3906 11.9415 17.3906H11.5447C11.1061 17.3906 10.9391 17.5603 10.9391 17.942V18.0481C10.9391 18.3026 11.0852 18.4722 11.2732 18.5358L12.3801 18.9388C12.8605 19.1084 13.0902 19.469 13.0902 19.9992V20.2324C13.0902 20.9323 12.6934 21.3988 11.8998 21.3988H11.315C10.6884 21.3988 10.3125 21.1231 10.3125 20.4657C10.3125 20.3173 10.396 20.1688 10.6049 20.1688C10.8137 20.1688 10.8973 20.3173 10.8973 20.4657C10.8973 20.7414 11.0852 20.8475 11.3359 20.8475H11.9207C12.3384 20.8475 12.5472 20.6142 12.5472 20.2536V20.0204C12.5472 19.7447 12.4219 19.5962 12.2339 19.5114L11.0644 19.0872Z" fill="white"/>
<path d="M15.1577 18.0482C15.7843 18.0482 16.1602 18.4512 16.1602 19.0238V21.0385C16.1602 21.1869 16.0767 21.3354 15.8678 21.3354H14.7191C14.1552 21.3354 13.7793 21.0597 13.7793 20.4871V19.9993C13.7793 19.4267 14.1552 19.151 14.7191 19.151H15.5963V19.0238C15.5963 18.7057 15.4083 18.5784 15.1577 18.5784H14.3432C14.197 18.5784 14.0717 18.4936 14.0717 18.3239C14.0717 18.133 14.197 18.0482 14.3432 18.0482H15.1577ZM15.5963 20.8052V19.6812H14.7191C14.4685 19.6812 14.3432 19.8084 14.3432 19.9993V20.4659C14.3432 20.6567 14.4685 20.784 14.7191 20.784H15.5963V20.8052Z" fill="white"/>
<path d="M20.0438 19.1934C20.0438 18.8117 19.8767 18.5784 19.459 18.5784H19.104V21.1021C19.104 21.2505 19.0204 21.399 18.8325 21.399C18.6236 21.399 18.561 21.2505 18.561 21.1021V18.5784H17.6211V21.1021C17.6211 21.2505 17.5376 21.399 17.3496 21.399C17.1408 21.399 17.0781 21.2505 17.0781 21.1021V18.3451C17.0781 18.1755 17.1617 18.0482 17.3496 18.0482H19.5008C20.2735 18.0482 20.6495 18.4936 20.6495 19.1934V21.1021C20.6495 21.2505 20.5659 21.399 20.378 21.399C20.1691 21.399 20.1065 21.2505 20.1065 21.1021V19.1934H20.0438Z" fill="white"/>
<path d="M22.3213 21.3983C21.7574 21.3983 21.4023 21.165 21.4023 20.6348C21.4023 20.4652 21.465 20.3379 21.6739 20.3379C21.8827 20.3379 21.9245 20.4652 21.9454 20.6348C21.9454 20.7833 22.0916 20.8893 22.3004 20.8893H22.8016C23.094 20.8893 23.1985 20.7409 23.1985 20.55V20.3167C23.1985 20.1683 23.1149 20.0834 22.9687 20.041L21.9871 19.7653C21.6112 19.6593 21.4232 19.4048 21.4232 18.9806V18.8322C21.4232 18.2596 21.7365 17.9839 22.3631 17.9839H22.7181C23.282 17.9839 23.637 18.2172 23.637 18.7474C23.637 18.917 23.5744 19.0443 23.3655 19.0443C23.1567 19.0443 23.094 18.917 23.094 18.7474C23.094 18.5989 22.9687 18.4929 22.739 18.4929H22.3839C22.0707 18.4929 21.9871 18.6413 21.9871 18.8322V18.9806C21.9871 19.1079 22.0707 19.2139 22.2169 19.2563L23.1776 19.532C23.5535 19.6381 23.7415 19.8926 23.7415 20.3167V20.55C23.7415 21.1226 23.4073 21.3983 22.8016 21.3983H22.3213Z" fill="white"/>
<path d="M25.0776 20.1679C25.0776 20.5496 25.2446 20.7829 25.6624 20.7829H26.4142V18.2592C26.4142 18.1107 26.4769 17.9623 26.6857 17.9623C26.8946 17.9623 26.9572 18.1107 26.9572 18.2592V21.0374C26.9572 21.1858 26.8737 21.3343 26.6857 21.3343H25.6624C24.8896 21.3343 24.5137 20.8889 24.5137 20.1891V18.2804C24.5137 18.1319 24.5972 17.9835 24.7852 17.9835C24.994 17.9835 25.0567 18.1319 25.0567 18.2804V20.1679H25.0776Z" fill="white"/>
<path d="M29.7976 19.1934C29.7976 18.8117 29.6305 18.5784 29.2128 18.5784H28.461V21.1021C28.461 21.2505 28.3983 21.399 28.1895 21.399C27.9806 21.399 27.918 21.2505 27.918 21.1021V18.3451C27.918 18.1755 28.0015 18.0482 28.1895 18.0482H29.2128C29.9856 18.0482 30.3615 18.4936 30.3615 19.1934V21.1021C30.3615 21.2505 30.278 21.399 30.09 21.399C29.8812 21.399 29.8185 21.2505 29.8185 21.1021V19.1934H29.7976Z" fill="white"/>
<path d="M33.6402 21.673C33.6402 22.3729 33.2434 22.9031 32.4707 22.9031H31.7814C31.6353 22.9031 31.5099 22.8394 31.5099 22.6274C31.5099 22.4365 31.6353 22.3517 31.7814 22.3517H32.4707C32.8884 22.3517 33.0763 22.076 33.0763 21.6518V21.3337H32.3245C31.5517 21.3337 31.1758 20.8883 31.1758 20.1885V19.2978C31.1758 18.5979 31.5517 18.0677 32.3453 18.0677H33.3478C33.5567 18.0677 33.6402 18.2162 33.6402 18.3647V21.673ZM32.3245 18.5767C31.9068 18.5767 31.7188 18.8736 31.7188 19.2766V20.1673C31.7188 20.549 31.8859 20.7823 32.3036 20.7823H33.0554V18.5767H32.3245Z" fill="white"/>
<path d="M117.809 13.7627V13.5082H119.145V13.7627H118.644V15.0775H118.331V13.7627H117.809ZM119.855 13.5082L120.252 14.6322L120.649 13.5082H121.088V15.0987H120.816V13.8263L120.377 15.0987H120.127L119.688 13.8263V15.0987H119.396V13.5082H119.855Z" fill="white"/>
</g>
<defs>
<clipPath id="clip0_128_10529">
<rect width="132" height="37" fill="white" transform="translate(0 0.974976)"/>
</clipPath>
</defs>
</svg>
