<svg width="97" height="96" viewBox="0 0 97 96" fill="none" xmlns="http://www.w3.org/2000/svg">
<mask id="mask0_36_3820" style="mask-type:alpha" maskUnits="userSpaceOnUse" x="0" y="0" width="97" height="96">
<rect x="0.833008" width="96" height="96" fill="#D9D9D9"/>
</mask>
<g mask="url(#mask0_36_3820)">
<path d="M48.833 40C47.6997 40 46.7497 40.3833 45.983 41.15C45.2163 41.9167 44.833 42.8667 44.833 44V56.8L41.233 53.2C40.4997 52.4667 39.5663 52.1 38.433 52.1C37.2997 52.1 36.3663 52.4667 35.633 53.2C34.8997 53.9333 34.533 54.8667 34.533 56C34.533 57.1333 34.8997 58.0667 35.633 58.8L46.033 69.2C46.833 70 47.7663 70.4 48.833 70.4C49.8997 70.4 50.833 70 51.633 69.2L62.033 58.8C62.7663 58.0667 63.133 57.1333 63.133 56C63.133 54.8667 62.7663 53.9333 62.033 53.2C61.2997 52.4667 60.3663 52.1 59.233 52.1C58.0997 52.1 57.1663 52.4667 56.433 53.2L52.833 56.8V44C52.833 42.8667 52.4497 41.9167 51.683 41.15C50.9163 40.3833 49.9663 40 48.833 40ZM20.833 32V76H76.833V32H20.833ZM20.833 84C18.633 84 16.7497 83.2167 15.183 81.65C13.6163 80.0833 12.833 78.2 12.833 76V26.1C12.833 25.1667 12.983 24.2667 13.283 23.4C13.583 22.5333 14.033 21.7333 14.633 21L19.633 14.9C20.3663 13.9667 21.283 13.25 22.383 12.75C23.483 12.25 24.633 12 25.833 12H71.833C73.033 12 74.183 12.25 75.283 12.75C76.383 13.25 77.2997 13.9667 78.033 14.9L83.033 21C83.633 21.7333 84.083 22.5333 84.383 23.4C84.683 24.2667 84.833 25.1667 84.833 26.1V76C84.833 78.2 84.0497 80.0833 82.483 81.65C80.9163 83.2167 79.033 84 76.833 84H20.833ZM22.433 24H75.233L71.833 20H25.833L22.433 24Z" fill="white"/>
</g>
</svg>
