<svg width="40" height="40" viewBox="0 0 40 40" fill="#currentColor" xmlns="http://www.w3.org/2000/svg">
<mask id="mask0_302_38576" style="mask-type:alpha" maskUnits="userSpaceOnUse" x="0" y="0" width="40" height="40">
<rect width="40" height="40" fill="#currentColor"/>
</mask>
<g mask="url(#mask0_302_38576)">
<path d="M27.8333 25.8333L34.1667 20.4167L35.25 20.5C35.7222 20.5556 36.0903 20.75 36.3542 21.0833C36.6181 21.4167 36.75 21.7778 36.75 22.1667C36.75 22.3889 36.7083 22.6111 36.625 22.8333C36.5417 23.0556 36.3889 23.25 36.1667 23.4167L31.8333 27.2083L33.125 32.8333C33.1528 32.8889 33.1667 32.9514 33.1667 33.0208V33.2083C33.1667 33.6806 33 34.0764 32.6667 34.3958C32.3333 34.7153 31.9444 34.875 31.5 34.875C31.3611 34.875 31.2153 34.8542 31.0625 34.8125C30.9097 34.7708 30.7639 34.7083 30.625 34.625L29.75 34.0833L27.8333 25.8333ZM23.9167 13.6667L22.1667 9.58333L22.5417 8.66667C22.6806 8.33333 22.8958 8.07639 23.1875 7.89583C23.4792 7.71528 23.7778 7.625 24.0833 7.625C24.3889 7.625 24.6875 7.70833 24.9792 7.875C25.2708 8.04167 25.4861 8.29167 25.625 8.625L27.9167 14.0417L23.9167 13.6667ZM12.25 29.7083L17.5 26.5417L22.75 29.75L21.375 23.75L26 19.75L19.9167 19.2083L17.5 13.5417L15.0833 19.1667L9 19.7083L13.625 23.75L12.25 29.7083ZM8.08333 32.8333L9.91667 24.9583L3.79167 19.6667C3.56944 19.5 3.42361 19.3056 3.35417 19.0833C3.28472 18.8611 3.25 18.6389 3.25 18.4167C3.25 18.0278 3.38194 17.6667 3.64583 17.3333C3.90972 17 4.27778 16.8056 4.75 16.75L12.8333 16.0417L15.9583 8.625C16.0972 8.29167 16.3125 8.04167 16.6042 7.875C16.8958 7.70833 17.1944 7.625 17.5 7.625C17.8056 7.625 18.1042 7.70833 18.3958 7.875C18.6875 8.04167 18.9028 8.29167 19.0417 8.625L22.1667 16.0417L30.25 16.75C30.7222 16.8056 31.0903 17 31.3542 17.3333C31.6181 17.6667 31.75 18.0278 31.75 18.4167C31.75 18.6389 31.7153 18.8611 31.6458 19.0833C31.5764 19.3056 31.4306 19.5 31.2083 19.6667L25.0833 24.9583L26.9167 32.8333C26.9444 32.9167 26.9583 33.0417 26.9583 33.2083C26.9583 33.6806 26.7917 34.0764 26.4583 34.3958C26.125 34.7153 25.7361 34.875 25.2917 34.875C25.2083 34.875 24.9167 34.7917 24.4167 34.625L17.5 30.4583L10.5833 34.625C10.4444 34.7083 10.2986 34.7708 10.1458 34.8125C9.99306 34.8542 9.84722 34.875 9.70833 34.875C9.20833 34.875 8.77778 34.6736 8.41667 34.2708C8.05556 33.8681 7.94444 33.3889 8.08333 32.8333Z" fill="#currentColor"/>
</g>
</svg>
