<svg width="24" height="25" viewBox="0 0 24 25" fill="none" xmlns="http://www.w3.org/2000/svg">
<g clip-path="url(#clip0_532_1774)">
<path d="M11.9998 8.63062C11.2087 8.63062 10.4354 8.86522 9.77757 9.30474C9.11977 9.74427 8.60708 10.369 8.30433 11.0999C8.00158 11.8308 7.92237 12.6351 8.07671 13.411C8.23105 14.1869 8.61201 14.8996 9.17142 15.4591C9.73083 16.0185 10.4436 16.3994 11.2195 16.5538C11.9954 16.7081 12.7997 16.6289 13.5306 16.3261C14.2615 16.0234 14.8862 15.5107 15.3257 14.8529C15.7653 14.1951 15.9998 13.4217 15.9998 12.6306C15.9998 11.5698 15.5784 10.5523 14.8283 9.8022C14.0781 9.05205 13.0607 8.63062 11.9998 8.63062ZM11.9998 14.6306C11.6043 14.6306 11.2176 14.5133 10.8887 14.2936C10.5598 14.0738 10.3035 13.7614 10.1521 13.396C10.0007 13.0305 9.96111 12.6284 10.0383 12.2404C10.1154 11.8525 10.3059 11.4961 10.5856 11.2164C10.8653 10.9367 11.2217 10.7462 11.6097 10.6691C11.9976 10.5919 12.3998 10.6315 12.7652 10.7829C13.1307 10.9342 13.443 11.1906 13.6628 11.5195C13.8826 11.8484 13.9998 12.2351 13.9998 12.6306C13.9998 13.1611 13.7891 13.6698 13.4141 14.0448C13.039 14.4199 12.5303 14.6306 11.9998 14.6306Z" fill="#D7D7D7"/>
<path d="M21.2938 14.53L20.8498 14.274C21.0497 13.1864 21.0497 12.0716 20.8498 10.984L21.2938 10.728C21.6352 10.531 21.9345 10.2687 22.1746 9.95607C22.4147 9.64342 22.5908 9.28654 22.6929 8.90582C22.7951 8.5251 22.8212 8.12799 22.7699 7.73716C22.7186 7.34633 22.5908 6.96944 22.3938 6.62801C22.1968 6.28657 21.9345 5.98727 21.6219 5.74721C21.3092 5.50714 20.9523 5.33101 20.5716 5.22887C20.1909 5.12672 19.7938 5.10057 19.403 5.15189C19.0121 5.20322 18.6352 5.33102 18.2938 5.528L17.8488 5.78501C17.0083 5.06692 16.0425 4.51025 14.9998 4.143V3.63C14.9998 2.83436 14.6837 2.07129 14.1211 1.50868C13.5585 0.946075 12.7954 0.630005 11.9998 0.630005C11.2041 0.630005 10.4411 0.946075 9.87848 1.50868C9.31587 2.07129 8.9998 2.83436 8.9998 3.63V4.143C7.95719 4.51157 6.99165 5.0696 6.1518 5.789L5.7048 5.53C5.01524 5.13218 4.19588 5.02458 3.42698 5.23087C2.65808 5.43716 2.00262 5.94044 1.6048 6.63C1.20697 7.31957 1.09937 8.13892 1.30566 8.90782C1.51195 9.67672 2.01524 10.3322 2.7048 10.73L3.1488 10.986C2.94891 12.0736 2.94891 13.1884 3.1488 14.276L2.7048 14.532C2.01524 14.9298 1.51195 15.5853 1.30566 16.3542C1.09937 17.1231 1.20697 17.9424 1.6048 18.632C2.00262 19.3216 2.65808 19.8249 3.42698 20.0311C4.19588 20.2374 5.01524 20.1298 5.7048 19.732L6.1498 19.475C6.99056 20.1932 7.95678 20.7499 8.9998 21.117V21.63C8.9998 22.4257 9.31587 23.1887 9.87848 23.7513C10.4411 24.3139 11.2041 24.63 11.9998 24.63C12.7954 24.63 13.5585 24.3139 14.1211 23.7513C14.6837 23.1887 14.9998 22.4257 14.9998 21.63V21.117C16.0424 20.7484 17.008 20.1904 17.8478 19.471L18.2948 19.729C18.9844 20.1268 19.8037 20.2344 20.5726 20.0281C21.3415 19.8219 21.997 19.3186 22.3948 18.629C22.7926 17.9394 22.9002 17.1201 22.6939 16.3512C22.4876 15.5823 21.9844 14.9268 21.2948 14.529L21.2938 14.53ZM18.7458 10.754C19.0844 11.9811 19.0844 13.2769 18.7458 14.504C18.6867 14.7176 18.7002 14.9447 18.7841 15.1498C18.8681 15.3549 19.0178 15.5263 19.2098 15.637L20.2938 16.263C20.5236 16.3956 20.6913 16.6141 20.7601 16.8703C20.8288 17.1266 20.7929 17.3997 20.6603 17.6295C20.5277 17.8593 20.3092 18.027 20.053 18.0958C19.7967 18.1645 19.5236 18.1286 19.2938 17.996L18.2078 17.368C18.0157 17.2567 17.792 17.2126 17.572 17.2424C17.3521 17.2723 17.1483 17.3745 16.9928 17.533C16.1027 18.4417 14.9814 19.09 13.7498 19.408C13.5348 19.4633 13.3444 19.5885 13.2084 19.7639C13.0724 19.9394 12.9987 20.155 12.9988 20.377V21.63C12.9988 21.8952 12.8934 22.1496 12.7059 22.3371C12.5184 22.5246 12.264 22.63 11.9988 22.63C11.7336 22.63 11.4792 22.5246 11.2917 22.3371C11.1042 22.1496 10.9988 21.8952 10.9988 21.63V20.378C10.9989 20.156 10.9252 19.9404 10.7892 19.7649C10.6532 19.5895 10.4628 19.4643 10.2478 19.409C9.01615 19.0897 7.89513 18.44 7.0058 17.53C6.85032 17.3715 6.64654 17.2693 6.42655 17.2394C6.20657 17.2096 5.9829 17.2537 5.7908 17.365L4.7068 17.992C4.59303 18.0587 4.46719 18.1022 4.33652 18.1201C4.20586 18.138 4.07295 18.1298 3.94545 18.0961C3.81795 18.0624 3.69838 18.0038 3.59362 17.9237C3.48886 17.8436 3.40098 17.7435 3.33503 17.6293C3.26909 17.5151 3.22639 17.389 3.2094 17.2582C3.1924 17.1274 3.20143 16.9946 3.23599 16.8673C3.27054 16.74 3.32993 16.6209 3.41073 16.5166C3.49153 16.4124 3.59215 16.3252 3.7068 16.26L4.7908 15.634C4.98275 15.5233 5.13247 15.3519 5.21646 15.1468C5.30044 14.9417 5.31393 14.7146 5.2548 14.501C4.91616 13.2739 4.91616 11.9781 5.2548 10.751C5.31286 10.5379 5.29873 10.3115 5.21461 10.1073C5.13049 9.90305 4.98111 9.73241 4.7898 9.622L3.7058 8.99601C3.47599 8.8634 3.30827 8.64493 3.23954 8.38866C3.17081 8.13239 3.20669 7.85931 3.3393 7.6295C3.47191 7.39969 3.69038 7.23198 3.94664 7.16324C4.20291 7.09451 4.47599 7.1304 4.7058 7.263L5.7918 7.89101C5.98338 8.00252 6.20658 8.04722 6.42633 8.01807C6.64607 7.98893 6.84991 7.8876 7.0058 7.73C7.89589 6.82135 9.01722 6.17303 10.2488 5.855C10.4644 5.79957 10.6554 5.67376 10.7914 5.49751C10.9275 5.32126 11.0008 5.10465 10.9998 4.882V3.63C10.9998 3.36479 11.1052 3.11043 11.2927 2.9229C11.4802 2.73536 11.7346 2.63 11.9998 2.63C12.265 2.63 12.5194 2.73536 12.7069 2.9229C12.8944 3.11043 12.9998 3.36479 12.9998 3.63V4.882C12.9997 5.10396 13.0734 5.31965 13.2094 5.49509C13.3454 5.67052 13.5358 5.79574 13.7508 5.85101C14.9828 6.17016 16.1042 6.81989 16.9938 7.73C17.1493 7.88847 17.3531 7.9907 17.573 8.02057C17.793 8.05045 18.0167 8.00627 18.2088 7.895L19.2928 7.268C19.4066 7.20131 19.5324 7.15777 19.6631 7.13991C19.7937 7.12204 19.9266 7.1302 20.0541 7.16391C20.1816 7.19761 20.3012 7.25621 20.406 7.33632C20.5107 7.41643 20.5986 7.51647 20.6646 7.63068C20.7305 7.74489 20.7732 7.87101 20.7902 8.00179C20.8072 8.13257 20.7982 8.26542 20.7636 8.3927C20.7291 8.51997 20.6697 8.63915 20.5889 8.74338C20.5081 8.84761 20.4074 8.93482 20.2928 9L19.2088 9.62601C19.0178 9.73671 18.8689 9.90748 18.7851 10.1117C18.7014 10.3159 18.6876 10.5421 18.7458 10.755V10.754Z" fill="#D7D7D7"/>
</g>
<defs>
<clipPath id="clip0_532_1774">
<rect width="24" height="24" fill="white" transform="translate(0 0.630005)"/>
</clipPath>
</defs>
</svg>
