<svg width="24" height="25" viewBox="0 0 24 25" fill="none" xmlns="http://www.w3.org/2000/svg">
<g clip-path="url(#clip0_532_1771)">
<path d="M7.00001 0.630005H4.00001C2.93914 0.630005 1.92173 1.05143 1.17158 1.80158C0.421435 2.55172 7.62939e-06 3.56914 7.62939e-06 4.63001V7.63001C7.62939e-06 8.69087 0.421435 9.70829 1.17158 10.4584C1.92173 11.2086 2.93914 11.63 4.00001 11.63H7.00001C8.06087 11.63 9.07829 11.2086 9.82843 10.4584C10.5786 9.70829 11 8.69087 11 7.63001V4.63001C11 3.56914 10.5786 2.55172 9.82843 1.80158C9.07829 1.05143 8.06087 0.630005 7.00001 0.630005ZM9.00001 7.63001C9.00001 8.16044 8.78929 8.66915 8.41422 9.04422C8.03915 9.41929 7.53044 9.63 7.00001 9.63H4.00001C3.46957 9.63 2.96087 9.41929 2.58579 9.04422C2.21072 8.66915 2.00001 8.16044 2.00001 7.63001V4.63001C2.00001 4.09957 2.21072 3.59086 2.58579 3.21579C2.96087 2.84072 3.46957 2.63001 4.00001 2.63001H7.00001C7.53044 2.63001 8.03915 2.84072 8.41422 3.21579C8.78929 3.59086 9.00001 4.09957 9.00001 4.63001V7.63001Z" fill="#D7D7D7"/>
<path d="M19.9999 0.630005H16.9999C15.939 0.630005 14.9216 1.05143 14.1714 1.80158C13.4213 2.55172 12.9999 3.56914 12.9999 4.63001V7.63001C12.9999 8.69088 13.4213 9.70829 14.1714 10.4584C14.9216 11.2086 15.939 11.63 16.9999 11.63H19.9999C21.0607 11.63 22.0781 11.2086 22.8283 10.4584C23.5784 9.70829 23.9998 8.69088 23.9998 7.63001V4.63001C23.9998 3.56914 23.5784 2.55172 22.8283 1.80158C22.0781 1.05143 21.0607 0.630005 19.9999 0.630005ZM21.9999 7.63001C21.9999 8.16044 21.7891 8.66915 21.4141 9.04422C21.039 9.4193 20.5303 9.63001 19.9999 9.63001H16.9999C16.4694 9.63001 15.9607 9.4193 15.5856 9.04422C15.2106 8.66915 14.9999 8.16044 14.9999 7.63001V4.63001C14.9999 4.09957 15.2106 3.59087 15.5856 3.21579C15.9607 2.84072 16.4694 2.63001 16.9999 2.63001H19.9999C20.5303 2.63001 21.039 2.84072 21.4141 3.21579C21.7891 3.59087 21.9999 4.09957 21.9999 4.63001V7.63001Z" fill="#D7D7D7"/>
<path d="M7 13.63H4C2.93913 13.63 1.92172 14.0514 1.17157 14.8016C0.421427 15.5517 0 16.5691 0 17.63V20.63C0 21.6909 0.421427 22.7083 1.17157 23.4584C1.92172 24.2086 2.93913 24.63 4 24.63H7C8.06087 24.63 9.07828 24.2086 9.82843 23.4584C10.5786 22.7083 11 21.6909 11 20.63V17.63C11 16.5691 10.5786 15.5517 9.82843 14.8016C9.07828 14.0514 8.06087 13.63 7 13.63ZM9 20.63C9 21.1604 8.78929 21.6692 8.41421 22.0442C8.03914 22.4193 7.53043 22.63 7 22.63H4C3.46957 22.63 2.96086 22.4193 2.58579 22.0442C2.21071 21.6692 2 21.1604 2 20.63V17.63C2 17.0996 2.21071 16.5909 2.58579 16.2158C2.96086 15.8407 3.46957 15.63 4 15.63H7C7.53043 15.63 8.03914 15.8407 8.41421 16.2158C8.78929 16.5909 9 17.0996 9 17.63V20.63Z" fill="#D7D7D7"/>
<path d="M19.9999 13.63H16.9999C15.939 13.63 14.9216 14.0514 14.1714 14.8016C13.4213 15.5517 12.9999 16.5691 12.9999 17.63V20.63C12.9999 21.6909 13.4213 22.7083 14.1714 23.4584C14.9216 24.2086 15.939 24.63 16.9999 24.63H19.9999C21.0607 24.63 22.0781 24.2086 22.8283 23.4584C23.5784 22.7083 23.9998 21.6909 23.9998 20.63V17.63C23.9998 16.5691 23.5784 15.5517 22.8283 14.8016C22.0781 14.0514 21.0607 13.63 19.9999 13.63ZM21.9999 20.63C21.9999 21.1604 21.7891 21.6692 21.4141 22.0442C21.039 22.4193 20.5303 22.63 19.9999 22.63H16.9999C16.4694 22.63 15.9607 22.4193 15.5856 22.0442C15.2106 21.6692 14.9999 21.1604 14.9999 20.63V17.63C14.9999 17.0996 15.2106 16.5909 15.5856 16.2158C15.9607 15.8407 16.4694 15.63 16.9999 15.63H19.9999C20.5303 15.63 21.039 15.8407 21.4141 16.2158C21.7891 16.5909 21.9999 17.0996 21.9999 17.63V20.63Z" fill="#D7D7D7"/>
</g>
<defs>
<clipPath id="clip0_532_1771">
<rect width="24" height="24" fill="white" transform="translate(0 0.630005)"/>
</clipPath>
</defs>
</svg>
