<svg width="126" height="38" viewBox="0 0 126 38" fill="none" xmlns="http://www.w3.org/2000/svg">
<g clip-path="url(#clip0_128_10488)">
<path d="M121.331 37.9753H4.6685C2.10188 37.9753 0.00195312 35.8941 0.00195312 33.3503V5.60087C0.00195312 3.05715 2.10188 0.975952 4.6685 0.975952H121.331C123.897 0.975952 125.997 3.05715 125.997 5.60087V33.3503C125.997 35.8941 123.897 37.9753 121.331 37.9753Z" fill="#121212"/>
<path d="M121.331 0.975952H4.6685C2.10188 0.975952 0.00195312 3.05715 0.00195312 5.60087V33.3503C0.00195312 35.8941 2.10188 37.9753 4.6685 37.9753H121.331C123.897 37.9753 125.997 35.8941 125.997 33.3503V5.60087C125.997 3.05715 123.897 0.975952 121.331 0.975952ZM121.331 1.71556C123.492 1.71556 125.25 3.45862 125.25 5.60087V33.3503C125.25 35.4926 123.492 37.2356 121.331 37.2356H4.6685C2.50697 37.2356 0.748993 35.4926 0.748993 33.3503V5.60087C0.748993 3.45862 2.50697 1.71556 4.6685 1.71556H121.331Z" fill="#3A3A3A"/>
<path d="M99.8062 28.7249H101.548V17.1607H99.8062V28.7249ZM115.493 21.3267L113.496 26.34H113.437L111.365 21.3267H109.489L112.597 28.3336L110.824 32.2315H112.64L117.429 21.327L115.493 21.3267ZM105.616 27.4113C105.046 27.4113 104.25 27.1284 104.25 26.4292C104.25 25.5367 105.241 25.1946 106.096 25.1946C106.862 25.1946 107.223 25.3579 107.688 25.5812C107.552 26.6525 106.622 27.4113 105.616 27.4113ZM105.826 21.0737C104.566 21.0737 103.26 21.6244 102.719 22.8443L104.265 23.4838C104.595 22.8443 105.21 22.6362 105.856 22.6362C106.757 22.6362 107.673 23.1713 107.687 24.1237V24.2426C107.372 24.0641 106.696 23.7964 105.871 23.7964C104.204 23.7964 102.509 24.7036 102.509 26.3996C102.509 27.9468 103.875 28.9437 105.406 28.9437C106.576 28.9437 107.223 28.423 107.627 27.8128H107.687V28.7059H109.369V24.2721C109.369 22.2191 107.822 21.0737 105.826 21.0737ZM95.0633 22.7344H92.5862V18.7708H95.0633C96.3653 18.7708 97.1044 19.8389 97.1044 20.7525C97.1044 21.6487 96.3652 22.7344 95.0633 22.7344ZM95.0185 17.161H90.8455V28.7252H92.5863V24.3442H95.0185C96.9486 24.3442 98.8461 22.9596 98.8461 20.7529C98.8461 18.5467 96.9486 17.161 95.0185 17.161ZM72.2636 27.4133C71.0604 27.4133 70.0535 26.4145 70.0535 25.0441C70.0535 23.6577 71.0604 22.6449 72.2636 22.6449C73.4514 22.6449 74.3836 23.6578 74.3836 25.0441C74.3836 26.4145 73.4514 27.4133 72.2636 27.4133ZM74.2633 21.974H74.2031C73.8123 21.5122 73.0601 21.0949 72.1133 21.0949C70.1282 21.0949 68.309 22.8238 68.309 25.0441C68.309 27.2493 70.1282 28.963 72.1133 28.963C73.0601 28.963 73.8123 28.5456 74.2031 28.0691H74.2633V28.6349C74.2633 30.1405 73.4514 30.9448 72.1432 30.9448C71.0761 30.9448 70.4144 30.1849 70.1435 29.5443L68.6252 30.1701C69.0608 31.2128 70.2183 32.4948 72.1433 32.4948C74.1886 32.4948 75.9177 31.3024 75.9177 28.3963V21.3332H74.2633L74.2633 21.974ZM77.1208 28.7245H78.8642V17.1603H77.1208V28.7245ZM81.4356 24.9097C81.3907 23.3896 82.6241 22.6149 83.5107 22.6149C84.2027 22.6149 84.7885 22.9578 84.9847 23.4492L81.4356 24.9097ZM86.8484 23.5981C86.5178 22.7194 85.5104 21.0949 83.4506 21.0949C81.4053 21.0949 79.7064 22.6894 79.7064 25.029C79.7064 27.2345 81.3907 28.963 83.6456 28.963C85.4649 28.963 86.5178 27.8607 86.9541 27.2196L85.6008 26.3254C85.1496 26.9812 84.5334 27.4133 83.6456 27.4133C82.759 27.4133 82.1272 27.0109 81.7218 26.221L87.0289 24.0455L86.8484 23.5981ZM44.5621 22.302V23.971H48.5917C48.4714 24.9098 48.1556 25.5951 47.6744 26.0721C47.0878 26.6531 46.1706 27.2941 44.562 27.2941C42.081 27.2941 40.1416 25.3122 40.1416 22.8534C40.1416 20.3946 42.081 18.4125 44.562 18.4125C45.9003 18.4125 46.8774 18.9342 47.5992 19.6048L48.7874 18.4273C47.7797 17.4737 46.4417 16.7435 44.562 16.7435C41.1634 16.7435 38.3066 19.4855 38.3066 22.8534C38.3066 26.221 41.1634 28.963 44.562 28.963C46.3962 28.963 47.7797 28.3669 48.8621 27.2493C49.9749 26.1465 50.3208 24.5968 50.3208 23.3449C50.3208 22.9579 50.2905 22.6002 50.2304 22.302H44.5621ZM54.9025 27.4133C53.6994 27.4133 52.6618 26.4297 52.6618 25.029C52.6618 23.6133 53.6994 22.645 54.9025 22.645C56.1052 22.645 57.1427 23.6133 57.1427 25.029C57.1427 26.4297 56.1052 27.4133 54.9025 27.4133ZM54.9025 21.0949C52.7066 21.0949 50.9176 22.7489 50.9176 25.029C50.9176 27.2941 52.7066 28.963 54.9025 28.963C57.0976 28.963 58.8869 27.2941 58.8869 25.029C58.8869 22.7489 57.0976 21.0949 54.9025 21.0949ZM63.5944 27.4133C62.3921 27.4133 61.3542 26.4297 61.3542 25.029C61.3542 23.6133 62.3922 22.645 63.5944 22.645C64.7976 22.645 65.8348 23.6133 65.8348 25.029C65.8348 26.4297 64.7976 27.4133 63.5944 27.4133ZM63.5944 21.0949C61.3994 21.0949 59.6104 22.7489 59.6104 25.029C59.6104 27.2941 61.3994 28.963 63.5944 28.963C65.7903 28.963 67.5793 27.2941 67.5793 25.029C67.5793 22.7489 65.7903 21.0949 63.5944 21.0949Z" fill="white"/>
<path d="M19.3362 18.9429L9.40039 29.395C9.40076 29.3971 9.40151 29.3989 9.40186 29.4011C9.70658 30.5361 10.7526 31.3718 11.994 31.3718C12.4902 31.3718 12.9561 31.2389 13.3557 31.0054L13.3874 30.987L24.572 24.5906L19.3367 18.9427" fill="#EB3131"/>
<path d="M29.3878 17.163L29.3783 17.1565L24.5496 14.3822L19.1094 19.1799L24.5685 24.5896L29.3717 21.8429C30.2138 21.3923 30.7855 20.5125 30.7855 19.4979C30.7855 18.4905 30.2215 17.6151 29.3878 17.163" fill="#F6B60B"/>
<path d="M9.39972 9.55701C9.33999 9.7753 9.30859 10.004 9.30859 10.2414V28.7112C9.30859 28.9482 9.33962 29.1777 9.4001 29.3952L19.6789 19.2102L9.4001 9.55727" fill="#5778C5"/>
<path d="M19.4085 19.4759L24.5516 14.3802L13.3796 7.96061C12.9735 7.71956 12.4995 7.58044 11.9924 7.58044C10.751 7.58044 9.70359 8.41767 9.39881 9.55397C9.39844 9.55508 9.39844 9.55584 9.39844 9.55681L19.4084 19.4761" fill="#1EAF62"/>
<path d="M44.2345 10.0229H41.5118V10.6906H43.5521C43.4966 11.2355 43.2778 11.6633 42.9089 11.9741C42.54 12.2848 42.0689 12.4409 41.5118 12.4409C40.9008 12.4409 40.3831 12.2299 39.9588 11.8108C39.5431 11.383 39.3317 10.854 39.3317 10.2166C39.3317 9.57931 39.5431 9.05028 39.9588 8.62251C40.3831 8.2034 40.9008 7.99381 41.5118 7.99381C41.8254 7.99381 42.1244 8.04727 42.3985 8.16437C42.6727 8.28138 42.8928 8.44473 43.0649 8.65434L43.5826 8.14125C43.3478 7.87671 43.0504 7.67441 42.6813 7.52697C42.3124 7.37953 41.9274 7.30876 41.5118 7.30876C40.6966 7.30876 40.0054 7.58912 39.441 8.14848C38.8767 8.70921 38.5938 9.40009 38.5938 10.2166C38.5938 11.0332 38.8766 11.7256 39.441 12.2849C40.0054 12.8442 40.6966 13.1246 41.5118 13.1246C42.3678 13.1246 43.0503 12.8529 43.5753 12.3007C44.0376 11.8412 44.2738 11.2197 44.2738 10.4422C44.2738 10.3106 44.2577 10.1704 44.2344 10.023L44.2345 10.0229ZM45.2892 7.43294V13.0002H48.5689V12.3166H46.0111V10.5505H48.3181V9.88276H46.0111V8.11806H48.5689V7.43292L45.2892 7.43294ZM53.1677 8.11808V7.43294H49.3076V8.11808H50.8768V13.0002H51.5986V8.11808H53.1677ZM56.6625 7.43294H55.9407V13.0002H56.6625V7.43294ZM61.4271 8.11808V7.43294H57.567V8.11808H59.1361V13.0002H59.8579V8.11808H61.4271ZM68.7113 8.15711C68.1542 7.58908 67.4718 7.30872 66.6565 7.30872C65.8399 7.30872 65.1575 7.58908 64.6004 8.14844C64.0433 8.70056 63.7692 9.39282 63.7692 10.2166C63.7692 11.0404 64.0433 11.7327 64.6004 12.2849C65.1574 12.8441 65.8399 13.1246 66.6565 13.1246C67.4644 13.1246 68.1542 12.8441 68.7113 12.2849C69.2684 11.7328 69.5425 11.0404 69.5425 10.2166C69.5425 9.40004 69.2684 8.70913 68.7113 8.15711ZM65.1181 8.62246C65.5337 8.20335 66.0441 7.99376 66.6565 7.99376C67.2676 7.99376 67.778 8.20336 68.1863 8.62246C68.6019 9.03436 68.806 9.57194 68.806 10.2166C68.806 10.8627 68.6019 11.3988 68.1863 11.8108C67.778 12.2299 67.2676 12.4408 66.6565 12.4408C66.0441 12.4408 65.5337 12.2299 65.1181 11.8108C64.7111 11.3902 64.507 10.8627 64.507 10.2166C64.507 9.57195 64.7111 9.04302 65.1181 8.62246ZM71.2575 9.53302L71.2269 8.45909H71.2575L74.1129 13.0002H74.8668V7.43288H74.1449V10.6905L74.1755 11.7645H74.1449L71.415 7.43288H70.5357V13.0002H71.2575V9.53302Z" fill="white" stroke="white" stroke-width="0.26666" stroke-miterlimit="10"/>
</g>
<defs>
<clipPath id="clip0_128_10488">
<rect width="126" height="37" fill="white" transform="translate(0 0.974976)"/>
</clipPath>
</defs>
</svg>
