<svg width="140" height="38" viewBox="0 0 140 38" fill="none" xmlns="http://www.w3.org/2000/svg">
<g clip-path="url(#clip0_128_10559)">
<path d="M135.019 37.975H4.90415C2.20059 37.975 0 36.0066 0 33.597V5.34653C0 2.93598 2.20059 0.974976 4.90415 0.974976H135.019C137.722 0.974976 140 2.93598 140 5.34653V33.597C140 36.0066 137.722 37.975 135.019 37.975Z" fill="#3A3A3A"/>
<path d="M138.995 33.5979C138.995 35.5552 137.218 37.1406 135.019 37.1406H4.90306C2.70558 37.1406 0.921875 35.5552 0.921875 33.5979V5.34559C0.921875 3.38922 2.70558 1.79822 4.90306 1.79822H135.018C137.218 1.79822 138.994 3.38922 138.994 5.34559L138.995 33.5979Z" fill="#121212"/>
<path d="M40.2617 30.9939V19.5519H42.0609V29.3813H46.9706V30.9939H40.2617Z" fill="white"/>
<path d="M53.6571 31.1782C52.8541 31.1782 52.107 31.0298 51.4158 30.7328C50.7347 30.4359 50.135 30.0263 49.6166 29.5042C49.1083 28.9717 48.7119 28.3472 48.4272 27.6304C48.1426 26.9137 48.0003 26.1253 48.0003 25.2652C48.0003 24.4154 48.1375 23.6321 48.412 22.9154C48.6966 22.1884 49.0931 21.5638 49.6013 21.0416C50.1096 20.5092 50.7042 20.0996 51.3853 19.8129C52.0663 19.516 52.8134 19.3676 53.6266 19.3676C54.4297 19.3676 55.1463 19.5058 55.7766 19.7822C56.4169 20.0587 56.9557 20.4222 57.3928 20.8727C57.8299 21.313 58.145 21.7942 58.3381 22.3164L56.7371 23.0997C56.5034 22.4751 56.1171 21.9734 55.5783 21.5945C55.0396 21.2055 54.389 21.0109 53.6266 21.0109C52.8744 21.0109 52.2086 21.1901 51.6292 21.5485C51.0498 21.9068 50.5975 22.4034 50.2722 23.0382C49.9571 23.6731 49.7995 24.4154 49.7995 25.2652C49.7995 26.1151 49.9622 26.8625 50.2874 27.5076C50.6229 28.1424 51.0803 28.639 51.6597 28.9973C52.2391 29.3455 52.9049 29.5195 53.6571 29.5195C54.2874 29.5195 54.8617 29.3915 55.3801 29.1356C55.9087 28.8693 56.3305 28.5007 56.6457 28.0297C56.9608 27.5485 57.1183 26.9905 57.1183 26.3557V25.5724L57.9265 26.3096H53.6266V24.7737H58.9023V25.8488C58.9023 26.6884 58.76 27.441 58.4754 28.1065C58.1907 28.7618 57.8045 29.3199 57.3166 29.7806C56.8286 30.2414 56.2696 30.5895 55.6393 30.825C55.0091 31.0605 54.3484 31.1782 53.6571 31.1782Z" fill="white"/>
<path d="M67.6892 31.1782C66.9776 31.1782 66.3169 31.0451 65.707 30.7789C65.0971 30.5025 64.5787 30.1287 64.1517 29.6577C63.7248 29.1867 63.4097 28.6441 63.2064 28.0297L64.7311 27.3847C65.0056 28.0912 65.4071 28.6338 65.9357 29.0127C66.4643 29.3915 67.0742 29.581 67.7654 29.581C68.172 29.581 68.5278 29.5195 68.8327 29.3966C69.1377 29.2635 69.3715 29.0792 69.5341 28.8437C69.7069 28.6082 69.7933 28.3369 69.7933 28.0297C69.7933 27.6099 69.6764 27.2772 69.4426 27.0314C69.2088 26.7857 68.8632 26.5912 68.4058 26.4478L66.2711 25.772C65.4173 25.5058 64.7667 25.1014 64.3195 24.5587C63.8722 24.0058 63.6486 23.3608 63.6486 22.6236C63.6486 21.9785 63.8061 21.4154 64.1212 20.9341C64.4363 20.4426 64.8684 20.0587 65.4173 19.7822C65.9764 19.5058 66.6117 19.3676 67.3232 19.3676C68.0043 19.3676 68.6243 19.4904 69.1834 19.7362C69.7425 19.9717 70.2202 20.2993 70.6167 20.7191C71.0233 21.1389 71.3181 21.6253 71.501 22.1782L70.0068 22.8386C69.7831 22.2345 69.4325 21.7686 68.9547 21.4409C68.4871 21.1133 67.9433 20.9495 67.3232 20.9495C66.9471 20.9495 66.6167 21.016 66.3321 21.1491C66.0475 21.272 65.8239 21.4563 65.6612 21.702C65.5088 21.9375 65.4325 22.214 65.4325 22.5314C65.4325 22.9 65.5494 23.2277 65.7832 23.5143C66.017 23.801 66.3728 24.0161 66.8505 24.1594L68.8327 24.7891C69.7374 25.0656 70.4185 25.4649 70.8759 25.9871C71.3333 26.499 71.562 27.1389 71.562 27.9069C71.562 28.5417 71.3943 29.1048 71.0589 29.5963C70.7336 30.0878 70.2812 30.4769 69.7018 30.7636C69.1224 31.04 68.4515 31.1782 67.6892 31.1782Z" fill="white"/>
<path d="M73.5665 30.9939V22.685H75.2132V24.4819L74.9997 24.2055C75.1726 23.6423 75.4877 23.2174 75.9451 22.9307C76.4025 22.644 76.926 22.5007 77.5156 22.5007C78.1763 22.5007 78.7608 22.6799 79.2691 23.0382C79.7875 23.3864 80.1331 23.8522 80.3059 24.4359L79.818 24.4819C80.0619 23.8164 80.4329 23.3198 80.931 22.9922C81.4393 22.6645 82.0187 22.5007 82.6693 22.5007C83.2385 22.5007 83.7518 22.6338 84.2093 22.9C84.6768 23.1662 85.0479 23.5348 85.3223 24.0058C85.5968 24.4768 85.734 25.0144 85.734 25.6185V30.9939H84.011V26.0946C84.011 25.6748 83.9348 25.3215 83.7823 25.0348C83.64 24.7379 83.4367 24.5126 83.1724 24.3591C82.9183 24.1952 82.6184 24.1133 82.2728 24.1133C81.9272 24.1133 81.6223 24.1952 81.358 24.3591C81.0937 24.5126 80.8853 24.7379 80.7328 25.0348C80.5803 25.3318 80.5041 25.685 80.5041 26.0946V30.9939H78.7964V26.0946C78.7964 25.6748 78.7201 25.3215 78.5677 25.0348C78.4254 24.7379 78.2221 24.5126 77.9578 24.3591C77.7036 24.1952 77.3987 24.1133 77.0429 24.1133C76.6973 24.1133 76.3924 24.1952 76.1281 24.3591C75.8638 24.5126 75.6554 24.7379 75.5029 25.0348C75.3606 25.3318 75.2895 25.685 75.2895 26.0946V30.9939H73.5665Z" fill="white"/>
<path d="M90.2007 31.1782C89.6416 31.1782 89.1486 31.081 88.7217 30.8864C88.3049 30.6816 87.9796 30.4052 87.7458 30.0571C87.512 29.6987 87.3952 29.2789 87.3952 28.7977C87.3952 28.3472 87.4917 27.9427 87.6849 27.5843C87.8882 27.226 88.1982 26.9239 88.6149 26.6782C89.0317 26.4325 89.5552 26.2584 90.1854 26.156L93.052 25.6799V27.0468L90.5209 27.4922C90.0635 27.5741 89.728 27.7226 89.5146 27.9376C89.3011 28.1424 89.1944 28.4086 89.1944 28.7362C89.1944 29.0536 89.3113 29.3147 89.5451 29.5195C89.789 29.7141 90.099 29.8113 90.4752 29.8113C90.9427 29.8113 91.3493 29.7089 91.695 29.5042C92.0507 29.2994 92.3252 29.028 92.5183 28.6902C92.7115 28.342 92.808 27.9581 92.808 27.5383V25.4034C92.808 24.9939 92.6555 24.6611 92.3506 24.4051C92.0558 24.1389 91.6594 24.0058 91.1613 24.0058C90.7039 24.0058 90.3023 24.1287 89.9567 24.3744C89.6213 24.6099 89.3722 24.9171 89.2096 25.2959L87.7763 24.5741C87.9288 24.1645 88.1779 23.8062 88.5235 23.499C88.8691 23.1816 89.2706 22.9358 89.728 22.7618C90.1956 22.5877 90.6886 22.5007 91.207 22.5007C91.8576 22.5007 92.4319 22.6236 92.93 22.8693C93.4383 23.115 93.8296 23.458 94.1041 23.8983C94.3887 24.3283 94.531 24.8301 94.531 25.4034V30.9939H92.8843V29.4888L93.235 29.5349C93.0418 29.8728 92.7928 30.1646 92.4878 30.4103C92.193 30.656 91.8525 30.8455 91.4662 30.9786C91.0901 31.1117 90.6683 31.1782 90.2007 31.1782Z" fill="white"/>
<path d="M96.698 30.9939V22.685H98.3448V24.3591L98.1923 24.1133C98.3753 23.5707 98.6701 23.1816 99.0767 22.9461C99.4833 22.7003 99.9712 22.5775 100.54 22.5775H101.044V24.1594H100.327C99.7577 24.1594 99.2952 24.3386 98.9394 24.6969C98.5938 25.0451 98.421 25.5468 98.421 26.2021V30.9939H96.698Z" fill="white"/>
<path d="M106.092 31.0861C105.228 31.0861 104.557 30.8403 104.079 30.3489C103.601 29.8574 103.362 29.1663 103.362 28.2755V24.2516H101.914V22.685H102.142C102.529 22.685 102.829 22.5724 103.042 22.3471C103.256 22.1218 103.362 21.8147 103.362 21.4256V20.7805H105.085V22.685H106.961V24.2516H105.085V28.1987C105.085 28.4854 105.131 28.7311 105.222 28.9359C105.314 29.1304 105.461 29.284 105.665 29.3966C105.868 29.499 106.132 29.5502 106.458 29.5502C106.539 29.5502 106.63 29.5451 106.732 29.5349C106.834 29.5246 106.93 29.5144 107.022 29.5042V30.9939C106.879 31.0144 106.722 31.0349 106.549 31.0554C106.376 31.0758 106.224 31.0861 106.092 31.0861Z" fill="white"/>
<path d="M113.854 30.9939V21.1645H110.835V19.5519H118.611V21.1645H115.638V30.9939H113.854Z" fill="white"/>
<path d="M123.128 30.9939L119.102 19.5519H121.039L124.332 29.3199H123.951L127.229 19.5519H129.166L125.14 30.9939H123.128Z" fill="white"/>
<path d="M39.6113 13.5413V7.30017H43.6949V8.17979H40.5927V9.97255H43.5286V10.8522H40.5927V12.6617H43.6949V13.5413H39.6113Z" fill="white"/>
<path d="M44.598 13.5413V9.00915H45.4962V9.89715L45.3881 9.77987C45.499 9.49504 45.6764 9.28002 45.9204 9.13481C46.1643 8.98402 46.4471 8.90862 46.7687 8.90862C47.1014 8.90862 47.3952 8.98123 47.6503 9.12644C47.9053 9.27164 48.1049 9.4727 48.2491 9.72961C48.3932 9.98651 48.4653 10.2825 48.4653 10.6176V13.5413H47.5338V10.8689C47.5338 10.6399 47.4922 10.4473 47.4091 10.2909C47.3259 10.1289 47.2067 10.0061 47.0514 9.92228C46.9017 9.83293 46.7299 9.78825 46.5358 9.78825C46.3417 9.78825 46.1671 9.83293 46.0118 9.92228C45.8621 10.0061 45.7457 10.1289 45.6625 10.2909C45.5794 10.4529 45.5378 10.6455 45.5378 10.8689V13.5413H44.598Z" fill="white"/>
<path d="M48.864 15.3927C48.803 15.3927 48.7365 15.3871 48.6644 15.3759C48.5868 15.3704 48.523 15.362 48.4731 15.3508V14.5298C48.5785 14.5466 48.6838 14.555 48.7891 14.555C49.022 14.555 49.2078 14.4935 49.3464 14.3707C49.485 14.2534 49.5543 14.0747 49.5543 13.8345V9.00915H50.4941V13.8345C50.4941 14.164 50.4248 14.4461 50.2862 14.6806C50.1476 14.9152 49.9563 15.0911 49.7123 15.2084C49.4684 15.3313 49.1856 15.3927 48.864 15.3927ZM49.5543 8.38923V7.30017H50.4941V8.38923H49.5543Z" fill="white"/>
<path d="M53.8468 13.6418C53.4143 13.6418 53.0178 13.5385 52.6574 13.3319C52.3026 13.1252 52.0198 12.8432 51.8091 12.4858C51.5984 12.1283 51.4931 11.7234 51.4931 11.271C51.4931 10.8131 51.5984 10.4082 51.8091 10.0563C52.0198 9.69889 52.3026 9.41964 52.6574 9.21859C53.0123 9.01194 53.4087 8.90862 53.8468 8.90862C54.2903 8.90862 54.6868 9.01194 55.0361 9.21859C55.3909 9.41964 55.6709 9.69889 55.8761 10.0563C56.0868 10.4082 56.1921 10.8131 56.1921 11.271C56.1921 11.729 56.0868 12.1367 55.8761 12.4941C55.6654 12.8516 55.3826 13.1336 55.0277 13.3402C54.6729 13.5413 54.2792 13.6418 53.8468 13.6418ZM53.8468 12.7622C54.1129 12.7622 54.3485 12.698 54.5537 12.5695C54.7588 12.4411 54.9196 12.2652 55.0361 12.0418C55.158 11.8128 55.219 11.5559 55.219 11.271C55.219 10.9862 55.158 10.7321 55.0361 10.5087C54.9196 10.2853 54.7588 10.1094 54.5537 9.98093C54.3485 9.85247 54.1129 9.78825 53.8468 9.78825C53.5862 9.78825 53.3505 9.85247 53.1398 9.98093C52.9347 10.1094 52.7711 10.2853 52.6491 10.5087C52.5327 10.7321 52.4745 10.9862 52.4745 11.271C52.4745 11.5559 52.5327 11.8128 52.6491 12.0418C52.7711 12.2652 52.9347 12.4411 53.1398 12.5695C53.3505 12.698 53.5862 12.7622 53.8468 12.7622Z" fill="white"/>
<path d="M57.5108 15.3927C57.3999 15.3927 57.289 15.3815 57.1781 15.3592C57.0728 15.3424 56.9757 15.3145 56.887 15.2754V14.4628C56.9535 14.4796 57.0339 14.4935 57.1282 14.5047C57.2225 14.5215 57.3139 14.5298 57.4027 14.5298C57.6632 14.5298 57.8545 14.4712 57.9765 14.3539C58.104 14.2422 58.2177 14.0663 58.3175 13.8261L58.6169 13.1392L58.6003 13.935L56.6541 9.00915H57.6605L59.0993 12.7873H58.7583L60.1888 9.00915H61.2034L59.2157 14.0356C59.1104 14.3036 58.9773 14.5382 58.8165 14.7393C58.6613 14.9459 58.4755 15.1051 58.2593 15.2168C58.0486 15.3341 57.7991 15.3927 57.5108 15.3927Z" fill="white"/>
<path d="M65.6375 13.6418C65.205 13.6418 64.8086 13.5385 64.4482 13.3319C64.0933 13.1252 63.8106 12.8432 63.5999 12.4858C63.3892 12.1283 63.2838 11.7234 63.2838 11.271C63.2838 10.8131 63.3892 10.4082 63.5999 10.0563C63.8106 9.69889 64.0933 9.41964 64.4482 9.21859C64.803 9.01194 65.1995 8.90862 65.6375 8.90862C66.0811 8.90862 66.4775 9.01194 66.8268 9.21859C67.1816 9.41964 67.4617 9.69889 67.6668 10.0563C67.8775 10.4082 67.9828 10.8131 67.9828 11.271C67.9828 11.729 67.8775 12.1367 67.6668 12.4941C67.4561 12.8516 67.1733 13.1336 66.8185 13.3402C66.4636 13.5413 66.07 13.6418 65.6375 13.6418ZM65.6375 12.7622C65.9036 12.7622 66.1393 12.698 66.3444 12.5695C66.5496 12.4411 66.7104 12.2652 66.8268 12.0418C66.9488 11.8128 67.0098 11.5559 67.0098 11.271C67.0098 10.9862 66.9488 10.7321 66.8268 10.5087C66.7104 10.2853 66.5496 10.1094 66.3444 9.98093C66.1393 9.85247 65.9036 9.78825 65.6375 9.78825C65.3769 9.78825 65.1413 9.85247 64.9306 9.98093C64.7254 10.1094 64.5618 10.2853 64.4399 10.5087C64.3234 10.7321 64.2652 10.9862 64.2652 11.271C64.2652 11.5559 64.3234 11.8128 64.4399 12.0418C64.5618 12.2652 64.7254 12.4411 64.9306 12.5695C65.1413 12.698 65.3769 12.7622 65.6375 12.7622Z" fill="white"/>
<path d="M68.9835 13.5413V9.00915H69.8817V9.89715L69.7736 9.77987C69.8845 9.49504 70.0619 9.28002 70.3059 9.13481C70.5499 8.98402 70.8326 8.90862 71.1542 8.90862C71.4869 8.90862 71.7807 8.98123 72.0358 9.12644C72.2908 9.27164 72.4904 9.4727 72.6346 9.72961C72.7788 9.98651 72.8508 10.2825 72.8508 10.6176V13.5413H71.9194V10.8689C71.9194 10.6399 71.8778 10.4473 71.7946 10.2909C71.7114 10.1289 71.5922 10.0061 71.437 9.92228C71.2873 9.83293 71.1154 9.78825 70.9213 9.78825C70.7273 9.78825 70.5526 9.83293 70.3974 9.92228C70.2477 10.0061 70.1312 10.1289 70.0481 10.2909C69.9649 10.4529 69.9233 10.6455 69.9233 10.8689V13.5413H68.9835Z" fill="white"/>
<path fill-rule="evenodd" clip-rule="evenodd" d="M31.8813 19.1287C31.8813 25.3008 26.9115 30.296 20.7922 30.296C14.6635 30.296 9.70312 25.3008 9.70312 19.1287C9.70312 12.9563 14.6635 7.95642 20.7922 7.95642C26.9115 7.95642 31.8813 12.9563 31.8813 19.1287ZM20.7951 9.76669C20.9424 9.7683 21.0896 9.77264 21.2367 9.77971V10.6506C21.1279 10.6448 20.8921 10.6448 20.7951 10.6448C18.544 10.6448 16.4332 11.5272 14.8446 13.1266C13.2508 14.7275 12.3725 16.8646 12.3725 19.1238C12.3725 21.3959 13.2508 23.5221 14.8446 25.118C16.4332 26.7206 18.544 27.603 20.7951 27.603C25.2422 27.603 28.8946 24.1115 29.1867 19.7031C29.1907 19.6794 29.1907 19.588 29.1907 19.5692H23.4456V18.7079H30.0749V19.1241C30.0749 21.6288 29.1049 23.9764 27.3519 25.7419C25.5991 27.5033 23.2697 28.4765 20.7951 28.4765C18.311 28.4765 15.981 27.5033 14.2251 25.7419C12.4764 23.9764 11.511 21.6288 11.511 19.1241C11.511 13.9674 15.6766 9.76669 20.7951 9.76669ZM17.2512 16.8999C17.6033 16.8997 17.941 16.7585 18.19 16.5075C18.4391 16.2565 18.5791 15.9161 18.5793 15.5611C18.5793 14.8244 17.9865 14.2193 17.2512 14.2193C16.5158 14.2193 15.9231 14.8244 15.9231 15.5611C15.9231 16.2977 16.5158 16.8999 17.2512 16.8999ZM20.3461 24.0268V14.2257H21.2369V23.1455H23.437V24.0268H20.3461Z" fill="#A40033"/>
<path d="M17.2512 16.8999C17.6033 16.8997 17.941 16.7585 18.19 16.5075C18.4391 16.2565 18.5791 15.9161 18.5793 15.5611C18.5793 14.8244 17.9865 14.2193 17.2512 14.2193C16.5158 14.2193 15.9231 14.8244 15.9231 15.5611C15.9231 16.2977 16.5158 16.8999 17.2512 16.8999Z" fill="white"/>
<path d="M20.3461 14.2257V24.0268H23.437V23.1455H21.2369V14.2257H20.3461Z" fill="white"/>
<path d="M21.2367 9.77971C21.0896 9.77264 20.9424 9.7683 20.7951 9.76669C15.6766 9.76669 11.511 13.9674 11.511 19.1241C11.511 21.6288 12.4764 23.9764 14.2251 25.7419C15.981 27.5033 18.311 28.4765 20.7951 28.4765C23.2697 28.4765 25.5991 27.5033 27.3519 25.7419C29.1049 23.9764 30.0749 21.6288 30.0749 19.1241V18.7079H23.4456V19.5692H29.1907C29.1907 19.588 29.1907 19.6794 29.1867 19.7031C28.8946 24.1115 25.2422 27.603 20.7951 27.603C18.544 27.603 16.4332 26.7206 14.8446 25.118C13.2508 23.5221 12.3725 21.3959 12.3725 19.1238C12.3725 16.8646 13.2508 14.7275 14.8446 13.1266C16.4332 11.5272 18.544 10.6448 20.7951 10.6448C20.8921 10.6448 21.1279 10.6448 21.2367 10.6506V9.77971Z" fill="white"/>
</g>
<defs>
<clipPath id="clip0_128_10559">
<rect width="140" height="37" fill="white" transform="translate(0 0.974976)"/>
</clipPath>
</defs>
</svg>
