<svg width="56" height="56" viewBox="0 0 56 56" fill="none" xmlns="http://www.w3.org/2000/svg">
<path fill-rule="evenodd" clip-rule="evenodd" d="M27.5349 0.680675C27.2321 1.34825 23.1724 10.4981 23.0347 10.8253C22.9934 10.9169 22.8696 10.9955 22.7457 10.9955C22.6356 10.9955 21.8925 11.2049 21.1218 11.4536L19.6906 11.9118L16.3052 9.81737C14.4336 8.65238 12.851 7.69685 12.7822 7.68376C12.7272 7.67068 12.5483 7.8408 12.3969 8.06334L12.1216 8.46917L15.163 10.3541C15.4464 10.529 15.7062 10.6894 15.9444 10.8363C18.1128 12.1741 18.4854 12.404 18.4555 12.4712C18.4492 12.4851 18.4257 12.4921 18.3973 12.5005C18.384 12.5043 18.3698 12.5086 18.3557 12.5139C18.2731 12.5532 17.53 12.9983 16.7043 13.5219C14.0758 15.158 11.7501 17.6189 10.4152 20.1322C9.24542 22.3313 8.75 24.4387 8.75 27.096C8.75 29.2035 8.94266 30.2114 9.72709 32.3319C9.9748 33.0126 11.64 38.6151 13.4428 44.7673C15.2318 50.9195 16.7181 55.9722 16.7318 55.9984C16.771 56.0357 19.0751 55.4372 25.6395 53.6671L22.3379 42.2982C22.4379 42.3458 23.0883 42.4982 24.8891 42.7267C24.8891 42.7267 26.9901 43.0125 29.2413 42.7267C31.4924 42.441 33.1084 41.9268 33.1084 41.9268C33.1084 41.9268 34.691 43.8772 36.4525 46.0501L39.6727 50.0032L40.5122 49.3749C40.9801 49.0215 42.4802 47.922 43.8425 46.9271C45.205 45.9192 46.4022 45.0291 46.4986 44.9375L40.4968 37.5839C40.679 37.3964 41.0637 36.9921 41.1453 36.8741L41.5581 36.4029C42.3287 35.539 43.6224 33.654 44.0903 32.6985C46.5949 27.6327 46.072 22.0041 42.6865 17.4095C41.2278 15.4329 38.3516 13.1815 35.9158 12.1212C34.4708 11.506 32.5166 10.93 30.9891 10.6813C29.5853 10.4588 25.9798 10.4064 24.9614 10.5897C24.6311 10.6551 24.3696 10.642 24.3696 10.5897C24.3696 10.5243 25.3605 8.23354 26.5715 5.49774C27.7825 2.74887 28.7734 0.471238 28.7734 0.405788C28.7734 0.301069 28.1679 0 27.9614 0C27.8927 0 27.7 0.314156 27.5349 0.680675Z" fill="#DF1F28"/>
<path d="M47.2498 44.2983C47.2498 44.2983 46.5947 44.8459 46.4984 44.9375L40.4966 37.5839C40.6788 37.3965 41.0636 36.9921 41.1451 36.8741L44.2002 40.631C47.1452 44.27 47.2498 44.2983 47.2498 44.2983Z" fill="#0A84FF"/>
<path d="M27.8101 52.9616C27.8101 53.027 27.3284 53.2103 26.7504 53.3674C26.3673 53.4709 25.997 53.5707 25.6395 53.6672L22.3379 42.2982C22.4379 42.3458 23.0883 42.4982 24.8891 42.7268C24.8891 42.7268 25.567 45.16 26.3651 47.8827C27.1633 50.6054 27.8101 52.883 27.8101 52.9616Z" fill="#0A84FF"/>
<path d="M16.0346 31.8695L14.5339 27.0122C14.0336 25.5837 13.6334 22.5836 16.785 21.155C19.9365 19.7264 26.5398 17.0121 28.0405 16.4407C29.5412 15.8692 34.0434 14.5835 36.1445 21.155L38.5456 28.5837C39.0458 30.298 39.0259 33.9266 34.9439 34.7266C30.8619 35.5266 24.5388 36.246 21.8874 36.5057C19.0361 36.785 17.2932 35.8232 16.0346 31.8695Z" fill="#0A84FF"/>
<path d="M20.1152 32.2606L18.8688 28.2195C18.4533 27.0309 18.3697 25.058 20.9872 23.8694C23.6046 22.6808 28.8952 20.7734 30.1416 20.298C31.388 19.8225 35.6002 17.8791 37.3451 23.3464L38.8111 29.527C39.2266 30.9532 38.2456 33.999 35.9945 34.441C31.7924 35.2659 27.1781 35.9019 24.9761 36.1179C22.608 36.3503 21.1605 35.55 20.1152 32.2606Z" fill="white"/>
<path d="M23.0884 27.8694L29.3914 26.1551L31.6425 29.5837V25.5836L32.9932 25.1551L32.8431 31.0123L31.3424 31.4409L27.8156 26.5836L28.0408 27.5837L26.3899 28.0123L27.5905 32.298L26.3899 32.5838L25.0393 28.4408L23.3885 28.8694L23.0884 27.8694Z" fill="#0A84FF"/>
</svg>
