<svg width="97" height="96" viewBox="0 0 97 96" fill="none" xmlns="http://www.w3.org/2000/svg">
<path d="M44.5 72V84C44.5 86.2 42.7 88 40.5 88C38.3 88 36.5 86.2 36.5 84V72H44.5ZM60.5 72V84C60.5 86.2 58.7 88 56.5 88C54.3 88 52.5 86.2 52.5 84V72H60.5Z" fill="white"/>
<path opacity="0.4" d="M68.5 44V64C68.5 68.4 64.9 72 60.5 72H36.5C32.1 72 28.5 68.4 28.5 64V44C28.5 39.6 32.1 36 36.5 36H60.5C64.9 36 68.5 39.6 68.5 44Z" fill="white"/>
<path d="M22.2621 43.8569V59.8569C22.2621 62.0569 20.5478 63.8569 18.4526 63.8569C16.3574 63.8569 14.6431 62.0569 14.6431 59.8569V43.8569C14.6431 41.6569 16.3574 39.8569 18.4526 39.8569C20.5478 39.8569 22.2621 41.6569 22.2621 43.8569ZM83.2145 43.8569V59.8569C83.2145 62.0569 81.5002 63.8569 79.405 63.8569C77.3097 63.8569 75.5954 62.0569 75.5954 59.8569V43.8569C75.5954 41.6569 77.3097 39.8569 79.405 39.8569C81.5002 39.8569 83.2145 41.6569 83.2145 43.8569Z" fill="white"/>
<path opacity="0.4" d="M38.9 30.4H58.1C61.62 30.4 64.5 27.52 64.5 24C64.5 15.16 57.34 8 48.5 8C39.66 8 32.5 15.16 32.5 24C32.5 27.52 35.38 30.4 38.9 30.4Z" fill="white"/>
</svg>
