<svg width="24" height="23" viewBox="0 0 24 23" fill="none" xmlns="http://www.w3.org/2000/svg">
<path d="M19 2.21021H12.472C12.3173 2.21123 12.1645 2.17703 12.025 2.11021L8.869 0.526205C8.45239 0.31875 7.9934 0.210591 7.528 0.210205H5C3.67441 0.211793 2.40356 0.739087 1.46622 1.67643C0.528882 2.61376 0.00158786 3.88461 0 5.21021V17.2102C0.00158786 18.5358 0.528882 19.8067 1.46622 20.744C2.40356 21.6813 3.67441 22.2086 5 22.2102H19C20.3256 22.2086 21.5964 21.6813 22.5338 20.744C23.4711 19.8067 23.9984 18.5358 24 17.2102V7.21021C23.9984 5.88461 23.4711 4.61376 22.5338 3.67643C21.5964 2.73909 20.3256 2.21179 19 2.21021ZM5 2.21021H7.528C7.68266 2.20918 7.83552 2.24338 7.975 2.31021L11.131 3.88921C11.5472 4.09839 12.0062 4.20827 12.472 4.21021H19C19.598 4.21118 20.1821 4.39088 20.6773 4.72622C21.1725 5.06156 21.5561 5.53725 21.779 6.09221L2 6.20421V5.21021C2 4.41456 2.31607 3.65149 2.87868 3.08889C3.44129 2.52628 4.20435 2.21021 5 2.21021ZM19 20.2102H5C4.20435 20.2102 3.44129 19.8941 2.87868 19.3315C2.31607 18.7689 2 18.0059 2 17.2102V8.20421L22 8.09121V17.2102C22 18.0059 21.6839 18.7689 21.1213 19.3315C20.5587 19.8941 19.7956 20.2102 19 20.2102Z" fill="#currentColor"/>
</svg>
