<svg width="24" height="25" viewBox="0 0 24 25" fill="none" xmlns="http://www.w3.org/2000/svg">
<g clip-path="url(#clip0_532_1760)">
<path d="M19 0.210022H5C3.67441 0.21161 2.40356 0.738904 1.46622 1.67624C0.528882 2.61358 0.00158786 3.88443 0 5.21002V19.21C0.00158786 20.5356 0.528882 21.8065 1.46622 22.7438C2.40356 23.6811 3.67441 24.2084 5 24.21H19C20.3256 24.2084 21.5964 23.6811 22.5338 22.7438C23.4711 21.8065 23.9984 20.5356 24 19.21V5.21002C23.9984 3.88443 23.4711 2.61358 22.5338 1.67624C21.5964 0.738904 20.3256 0.21161 19 0.210022ZM20 11.21H22V13.21H20V11.21ZM20 9.21002V7.21002H22V9.21002H20ZM18 11.21H6V2.21002H18V11.21ZM4 13.21H2V11.21H4V13.21ZM4 9.21002H2V7.21002H4V9.21002ZM2 15.21H4V17.21H2V15.21ZM6 13.21H18V22.21H6V13.21ZM20 15.21H22V17.21H20V15.21ZM22 5.21002H20V2.39402C20.5829 2.60011 21.0879 2.98125 21.4459 3.48532C21.8039 3.98939 21.9974 4.59176 22 5.21002ZM4 2.39402V5.21002H2C2.00256 4.59176 2.19608 3.98939 2.55409 3.48532C2.91209 2.98125 3.41709 2.60011 4 2.39402ZM2 19.21H4V22.026C3.41709 21.8199 2.91209 21.4388 2.55409 20.9347C2.19608 20.4307 2.00256 19.8283 2 19.21ZM20 22.026V19.21H22C21.9974 19.8283 21.8039 20.4307 21.4459 20.9347C21.0879 21.4388 20.5829 21.8199 20 22.026Z" fill="#D7D7D7"/>
</g>
<defs>
<clipPath id="clip0_532_1760">
<rect width="24" height="24" fill="white" transform="translate(0 0.210022)"/>
</clipPath>
</defs>
</svg>
