<svg width="24" height="22" viewBox="0 0 24 22" fill="none" xmlns="http://www.w3.org/2000/svg">
<path d="M17.5 0.126465C16.3739 0.14398 15.2724 0.458318 14.3067 1.03774C13.341 1.61715 12.5453 2.44113 12 3.42646C11.4546 2.44113 10.6589 1.61715 9.6932 1.03774C8.7275 0.458318 7.62601 0.14398 6.49996 0.126465C4.7049 0.204456 3.01366 0.989719 1.79574 2.3107C0.577818 3.63168 -0.0677922 5.38099 -4.17088e-05 7.17646C-4.17088e-05 11.7235 4.78596 16.6895 8.79996 20.0565C9.69618 20.8096 10.8293 21.2225 12 21.2225C13.1706 21.2225 14.3037 20.8096 15.2 20.0565C19.214 16.6895 24 11.7235 24 7.17646C24.0677 5.38099 23.4221 3.63168 22.2042 2.3107C20.9863 0.989719 19.295 0.204456 17.5 0.126465ZM13.915 18.5265C13.3789 18.9778 12.7007 19.2254 12 19.2254C11.2992 19.2254 10.621 18.9778 10.085 18.5265C4.94696 14.2155 1.99996 10.0795 1.99996 7.17646C1.9316 5.91118 2.36632 4.67019 3.20932 3.72416C4.05232 2.77813 5.23519 2.20381 6.49996 2.12646C7.76472 2.20381 8.9476 2.77813 9.7906 3.72416C10.6336 4.67019 11.0683 5.91118 11 7.17646C11 7.44168 11.1053 7.69603 11.2929 7.88357C11.4804 8.07111 11.7347 8.17646 12 8.17646C12.2652 8.17646 12.5195 8.07111 12.7071 7.88357C12.8946 7.69603 13 7.44168 13 7.17646C12.9316 5.91118 13.3663 4.67019 14.2093 3.72416C15.0523 2.77813 16.2352 2.20381 17.5 2.12646C18.7647 2.20381 19.9476 2.77813 20.7906 3.72416C21.6336 4.67019 22.0683 5.91118 22 7.17646C22 10.0795 19.053 14.2155 13.915 18.5225V18.5265Z" fill="#D7D7D7"/>
</svg>
