<svg width="97" height="96" viewBox="0 0 97 96" fill="none" xmlns="http://www.w3.org/2000/svg">
<circle opacity="0.2" cx="48.9287" cy="48" r="48" fill="white"/>
<path fill-rule="evenodd" clip-rule="evenodd" d="M48.9411 7.77928C48.9861 7.77977 49.0311 7.78031 49.0761 7.78092C50.071 7.79427 50.8524 8.61749 50.8524 9.61244V9.66595C50.8524 10.705 49.9802 11.5527 48.9411 11.5527C39.1971 11.5527 30.0603 15.3448 23.1838 22.218C16.285 29.0974 12.4835 38.2812 12.4835 47.9894C12.4835 57.7536 16.285 66.8901 23.1838 73.7484C30.0603 80.6353 39.1971 84.4274 48.9411 84.4274C68.1908 84.4274 84.0004 69.4232 85.2646 50.479C85.3181 50.1654 85.0241 49.9035 84.706 49.9035H62.2646C61.2425 49.9035 60.4139 49.0749 60.4139 48.0528C60.4139 47.0307 61.2425 46.2022 62.2646 46.2022H87.3211C88.3088 46.2022 89.1096 47.0029 89.1096 47.9907C89.1096 58.7542 84.9107 68.8427 77.3226 76.4294C69.7357 83.9986 59.6526 88.1809 48.9411 88.1809C38.1886 88.1809 28.103 83.9986 20.5025 76.4294C12.9331 68.8427 8.75401 58.7542 8.75401 47.9907C8.75401 25.8311 26.7854 7.77928 48.9411 7.77928ZM33.601 38.4328C35.1254 38.4318 36.587 37.8254 37.6649 36.7466C38.7428 35.6679 39.3488 34.205 39.3498 32.6795C39.3498 29.5138 36.784 26.9137 33.601 26.9137C30.418 26.9137 27.8522 29.5138 27.8522 32.6795C27.8522 35.8451 30.418 38.4328 33.601 38.4328ZM51.9975 69.059C49.2361 69.059 46.9975 66.8204 46.9975 64.059V28.8691C46.9975 27.8042 47.8608 26.941 48.9256 26.941C49.9904 26.941 50.8537 27.8042 50.8537 28.8691V60.5104C50.8537 63.1401 52.9855 65.2719 55.6152 65.2719H58.4831C59.5289 65.2719 60.3767 66.1197 60.3767 67.1654C60.3767 68.2112 59.5289 69.059 58.4831 69.059H51.9975Z" fill="white"/>
<path d="M33.601 38.4328C35.1254 38.4318 36.587 37.8254 37.6649 36.7466C38.7428 35.6679 39.3488 34.205 39.3498 32.6795C39.3498 29.5138 36.784 26.9137 33.601 26.9137C30.418 26.9137 27.8522 29.5138 27.8522 32.6795C27.8522 35.8451 30.418 38.4328 33.601 38.4328Z" fill="white"/>
<path d="M48.9256 26.941C47.8608 26.941 46.9975 27.8042 46.9975 28.8691V64.059C46.9975 66.8204 49.2361 69.059 51.9975 69.059H58.4831C59.5289 69.059 60.3767 68.2112 60.3767 67.1654C60.3767 66.1197 59.5289 65.2719 58.4831 65.2719H55.6152C52.9855 65.2719 50.8537 63.1401 50.8537 60.5104V28.8691C50.8537 27.8042 49.9904 26.941 48.9256 26.941Z" fill="white"/>
<path d="M50.8524 9.61244C50.8524 8.61749 50.071 7.79427 49.0761 7.78092C49.0311 7.78031 48.9861 7.77977 48.9411 7.77928C26.7854 7.77928 8.75401 25.8311 8.75401 47.9907C8.75401 58.7542 12.9331 68.8427 20.5025 76.4294C28.103 83.9986 38.1886 88.1809 48.9411 88.1809C59.6526 88.1809 69.7357 83.9986 77.3226 76.4294C84.9107 68.8427 89.1096 58.7542 89.1096 47.9907C89.1096 47.0029 88.3088 46.2022 87.3211 46.2022H62.2646C61.2425 46.2022 60.4139 47.0307 60.4139 48.0528C60.4139 49.0749 61.2425 49.9035 62.2646 49.9035H84.706C85.0241 49.9035 85.3181 50.1654 85.2646 50.479C84.0004 69.4232 68.1908 84.4274 48.9411 84.4274C39.1971 84.4274 30.0603 80.6353 23.1838 73.7484C16.285 66.8901 12.4835 57.7536 12.4835 47.9894C12.4835 38.2812 16.285 29.0974 23.1838 22.218C30.0603 15.3448 39.1971 11.5527 48.9411 11.5527C49.9802 11.5527 50.8524 10.705 50.8524 9.66595V9.61244Z" fill="white"/>
</svg>
