<svg width="180" height="64" viewBox="0 0 180 64" fill="none" xmlns="http://www.w3.org/2000/svg">
<path d="M166.21 12.5528C165.276 12.8676 164.74 13.3173 164.326 14.0969C162.81 17.0053 165.904 20.0485 168.86 18.5494C169.964 18.0097 170.515 17.1701 170.591 15.9559C170.622 15.4312 170.576 14.7565 170.485 14.4717C170.208 13.6622 169.197 12.7627 168.278 12.4928C167.313 12.208 167.206 12.208 166.21 12.5528ZM168.646 13.2574C168.891 13.3773 169.305 13.7521 169.55 14.0969C169.948 14.6216 170.009 14.8465 170.009 15.6411C170.009 16.7054 169.672 17.3501 168.799 17.9198C167.712 18.6394 166.471 18.5045 165.398 17.56C164.28 16.5706 164.204 15.0414 165.23 13.917C166.165 12.9126 167.466 12.6577 168.646 13.2574Z" fill="white"/>
<path d="M166.486 13.812C165.568 14.2617 165.307 15.9409 166.026 16.6904C166.778 17.4849 168.263 17.2601 168.6 16.3306C168.754 15.9259 168.738 15.8659 168.493 15.8659C168.309 15.8659 168.172 16.0158 168.11 16.2407C167.926 16.9753 166.747 17.0053 166.379 16.3007C166.134 15.8509 166.119 14.8914 166.348 14.5016C166.685 13.872 167.896 13.902 168.095 14.5316C168.187 14.8165 168.631 14.9364 168.631 14.6816C168.631 14.3368 168.401 14.0369 168.003 13.842C167.482 13.5721 166.992 13.5572 166.486 13.812Z" fill="white"/>
<path d="M98.7265 21.2929C98.6653 31.5621 98.6959 31.2473 97.7001 33.0912C97.0873 34.2156 96.1222 35.1001 94.9732 35.6248C93.1501 36.4494 90.4231 36.1945 88.7379 35.0551C86.0569 33.2562 85.2143 29.6432 86.7463 26.5549C87.7575 24.546 89.3967 23.5416 91.8632 23.3917C93.4411 23.3017 94.5135 23.5266 96.0148 24.2312C96.643 24.546 97.2864 24.8309 97.2864 24.8309L97.2098 21.3079C97.2098 21.3079 95.3561 20.5282 94.2531 20.2734C92.6905 19.9136 90.3465 20.0486 88.7379 20.5732C85.8884 21.5177 83.7436 23.6765 82.8397 26.4949L82.5793 27.3045L82.3035 26.4949C80.7409 21.8175 75.8079 18.8942 71.0281 19.8237C67.9487 20.4383 65.4669 22.2973 64.0881 25.0407C62.9238 27.3344 62.648 29.4483 63.2302 31.667C64.0728 34.8752 66.4933 37.4238 69.8024 38.5631C73.7396 39.9124 77.9527 38.7131 80.5417 35.5049L81.0013 34.9352L79.6225 33.9458C78.8718 33.406 78.1212 32.9563 78.1212 32.9563L77.539 33.571C77.539 33.571 75.6853 35.265 74.6895 35.5948C74.1686 35.7598 73.5558 35.8197 72.6826 35.7748C69.4807 35.6548 66.6925 33.1662 66.478 30.2878C66.1716 26.0751 70.0323 22.3123 73.9235 23.0469C75.8385 23.4216 77.6616 24.7259 78.4275 26.285L78.8565 27.1845L74.5363 27.2745C72.1464 27.3194 69.7412 27.3795 69.1743 27.3945L68.1325 27.4094V30.4077H82.3342L82.5946 31.6371C83.6057 36.3594 87.451 39.4027 92.3687 39.4027C96.7656 39.3877 100.105 37.064 101.545 33.0013C102.219 31.0973 102.296 29.8081 102.296 20.6183V12H98.6041L98.7265 21.2929Z" fill="white"/>
<path d="M146.718 19.6143C146.718 19.6143 148.317 22.1029 149.971 24.6515C151.641 27.2 153.02 29.3439 153.035 29.4188C153.065 29.4788 151.87 31.2478 150.4 33.3316L147.719 37.1245L147.627 32.8219C147.535 29.134 147.474 28.3544 147.198 27.26C146.692 25.3111 145.911 23.9169 144.655 22.6726C142.755 20.8136 140.334 19.9591 137.302 20.109C134.59 20.2439 132.583 21.0535 130.714 22.7925C129.549 23.8719 128.814 24.9513 128.355 26.2256C128.033 27.1251 127.986 27.0652 127.803 25.491C127.634 24.0668 127.16 23.0773 126.134 22.0729C124.723 20.7087 123.161 20.079 121.139 20.0641C119.223 20.0641 117.646 20.6487 116.39 21.833L115.623 22.5527L114.981 21.8931C112.1 18.9997 106.324 19.7043 104.394 23.1673C103.506 24.7714 103.475 25.1012 103.398 32.3122L103.337 38.9534H106.876L106.922 32.4621C106.968 25.3561 106.968 25.3561 107.933 24.3516C109.189 23.0324 111.64 23.0324 112.897 24.3516C113.862 25.3561 113.862 25.3561 113.908 32.4621L113.954 38.9534H117.447L117.539 25.6559L117.998 24.9363C119.193 23.0474 122.134 22.8075 123.544 24.4715C124.402 25.491 124.402 25.5959 124.463 32.5371L124.524 38.9534H128.033L128.048 35.9102C128.048 33.2417 128.079 32.9418 128.247 33.4066C128.753 34.7258 129.365 35.6403 130.469 36.7047C132.353 38.5487 134.36 39.3133 137.225 39.3283C139.079 39.3283 140.427 38.9835 141.821 38.1739L142.664 37.6791L142.755 34.0062L142.02 34.5459C139.798 36.225 137.118 36.5098 134.666 35.3405C132.169 34.1562 130.897 31.5326 131.388 28.5942C131.74 26.4205 132.828 24.9213 134.713 24.0068C135.708 23.5421 136.045 23.4521 137.179 23.3922C140.932 23.1973 143.245 24.9813 143.904 28.5793C144.042 29.3888 144.103 31.1128 144.118 34.336V38.9534H147.152L150.17 38.9384L152.544 35.1306C153.847 33.0468 154.95 31.3527 154.996 31.3827C155.042 31.4127 156.114 33.1217 157.37 35.1906L159.669 38.9384L161.568 38.9534H163.453L163.177 38.5337C163.039 38.3088 161.568 36.165 159.929 33.7663L156.957 29.3888L160.266 24.5016L163.56 19.6143H159.975L155.103 27.7098L150.476 19.6143H148.592C147.06 19.6143 146.718 19.6143 146.718 19.6143Z" fill="white"/>
<path d="M88.9671 45.7442C88.2472 45.9691 87.328 46.9136 87.1289 47.6332C86.991 48.1729 86.9144 48.2478 86.5161 48.2478H86.0566V45.6993H84.8311V51.8458H86.0566V48.9974H86.5008C86.8838 48.9974 86.9604 49.0724 87.0982 49.642C87.3433 50.5565 87.8795 51.2762 88.5841 51.621C89.4879 52.0557 91.4028 52.0407 92.2913 51.576C94.0682 50.6615 94.4207 47.8881 92.95 46.4489C92.1075 45.6243 90.3611 45.3095 88.9671 45.7442ZM91.5867 46.5538C92.2913 46.9586 92.7049 47.948 92.5977 48.9974C92.4445 50.6166 91.6632 51.3511 90.1927 51.2162C89.5033 51.1412 89.2888 51.0513 88.8752 50.6015C87.7723 49.4322 88.1399 46.9736 89.4879 46.4489C90.0395 46.224 91.1117 46.284 91.5867 46.5538Z" fill="white"/>
<path d="M123.82 45.7591C122.304 46.3138 121.553 48.1128 122.074 49.9418C122.518 51.5309 124.525 52.3854 126.547 51.8307C127.297 51.6359 128.155 50.8712 128.324 50.2266L128.477 49.7469H127.865C127.435 49.7469 127.267 49.8069 127.267 49.9717C127.267 50.0917 127.068 50.4065 126.823 50.6764C126.409 51.1411 126.302 51.1711 125.367 51.1711C124.479 51.1711 124.325 51.1261 123.912 50.7364C122.778 49.672 122.962 47.1534 124.219 46.5237C125.276 45.984 126.792 46.3888 127.022 47.2733C127.113 47.6181 127.19 47.663 127.696 47.6181C128.171 47.5881 128.247 47.5282 128.217 47.2733C128.14 46.8236 127.681 46.2539 127.113 45.939C126.455 45.5643 124.662 45.4593 123.82 45.7591Z" fill="white"/>
<path d="M139.983 45.7448C139.217 45.9846 138.389 46.8692 138.144 47.6937C137.899 48.5782 138.022 49.8824 138.404 50.5421C139.002 51.5165 140.351 52.0862 141.836 51.9513C143.292 51.8314 144.272 51.1867 144.67 50.0924C145.344 48.2184 144.41 46.1496 142.694 45.7298C141.836 45.5199 140.703 45.5199 139.983 45.7448ZM142.602 46.5543C143.307 46.9591 143.72 47.9485 143.613 48.9979C143.476 50.4821 142.771 51.2467 141.514 51.2467C140.135 51.2467 139.4 50.5121 139.262 48.9979C139.156 47.9635 139.554 46.9891 140.243 46.5693C140.81 46.2245 142.02 46.2245 142.602 46.5543Z" fill="white"/>
<path d="M64.9146 51.8754L67.1817 51.8305C69.3877 51.7705 69.4796 51.7555 70.0004 51.3658C70.6438 50.886 70.8582 50.2414 70.5825 49.5817C70.3834 49.132 69.7553 48.6973 69.2498 48.6973C69.0813 48.6823 69.1885 48.5623 69.5561 48.3825C70.5671 47.8577 70.6744 46.7484 69.7706 46.1187C69.3264 45.8039 69.0659 45.7739 67.1051 45.7289L64.9146 45.6689V51.8754ZM68.8974 46.7484C69.0659 46.9133 69.2038 47.2131 69.2038 47.408C69.2038 48.0076 68.683 48.2475 67.335 48.2475H66.1401V46.4486H67.3655C68.3919 46.4486 68.637 46.4935 68.8974 46.7484ZM69.1885 49.3569C69.5102 49.6417 69.6174 50.2713 69.3877 50.5862C69.1425 50.946 68.5604 51.0959 67.3808 51.0959H66.1401V48.9671L67.5034 49.0271C68.5757 49.0571 68.9281 49.132 69.1885 49.3569Z" fill="white"/>
<path d="M71.8091 51.8458H73.0193L73.1112 48.9224L74.6584 50.3766L76.1903 51.8458H77.2626C79.3306 51.8458 79.8821 51.0063 79.9127 47.7531L79.928 46.4489H82.0727V51.8458H83.2982V45.6992H78.7332L78.6719 47.8281C78.6107 50.2417 78.4115 50.8713 77.6609 51.0363C77.4311 51.0812 77.1554 51.1412 77.0635 51.1712C76.8643 51.2311 74.107 48.7725 74.107 48.5476C74.107 48.4727 74.8269 47.8131 75.7154 47.0634L77.3239 45.6992H76.6499C76.0218 45.6992 75.8839 45.7742 74.5511 46.9735L73.1112 48.2328L73.0193 45.6992H71.8091V51.8458Z" fill="white"/>
<path d="M94.6357 46.9585C94.6357 48.0679 94.6817 48.2778 94.9881 48.6226C95.4323 49.1173 96.0757 49.2822 97.4697 49.2522L98.6186 49.2223V51.8458H99.8445V45.6992H98.6186V48.5476H97.5769C96.0298 48.5476 95.8612 48.3828 95.8612 46.8836V45.6992H94.6357V46.9585Z" fill="white"/>
<path d="M101.377 51.8458H101.974C102.556 51.8458 102.587 51.8158 104.303 49.5671L106.049 47.2883L106.14 51.8458H107.351V45.6992H106.738C106.125 45.6992 106.125 45.6992 104.394 47.9629L102.679 50.2267L102.587 45.6992H101.377V51.8458Z" fill="white"/>
<path d="M111.947 51.8458H112.545C113.127 51.8458 113.157 51.8158 114.873 49.5671L116.619 47.2883L116.712 51.8458H117.922V45.6992H117.309C116.696 45.6992 116.696 45.6992 114.965 47.9629L113.249 50.2267L113.157 45.6992H111.947V51.8458Z" fill="white"/>
<path d="M129.412 51.8461H130.622L130.715 47.2737L131.649 49.5224C132.583 51.7712 132.583 51.7712 133.104 51.8161L133.624 51.8611L134.651 49.4925L135.693 47.1238V51.8461H136.918V45.6846L135.187 45.7745L134.16 48.1582L133.135 50.5568L132.798 49.8373C132.629 49.4325 132.476 49.0877 132.476 49.0427C132.476 49.0128 132.154 48.2481 131.771 47.3486L131.067 45.6996H129.412V51.8461Z" fill="white"/>
<path d="M144.885 46.074C144.885 46.4339 144.916 46.4489 146.034 46.4489H147.183V51.8458H148.409V46.4489H149.481C150.078 46.4489 150.553 46.4038 150.569 46.3289C150.569 46.2689 150.599 46.104 150.63 45.9541C150.676 45.7142 150.461 45.6992 147.781 45.6992H144.885V46.074Z" fill="white"/>
<path d="M151.32 51.8458H152.545V49.4472H153.464C155.716 49.4472 156.727 48.8475 156.743 47.5132C156.758 46.9285 156.682 46.6887 156.39 46.3888C155.869 45.8492 155.195 45.6992 153.127 45.6992H151.32V51.8458ZM155.072 46.6287C155.793 46.9435 155.747 48.1279 154.996 48.5027C154.782 48.6076 154.154 48.6976 153.587 48.6976H152.545V46.4489H153.618C154.199 46.4489 154.858 46.5238 155.072 46.6287Z" fill="white"/>
<path d="M157.601 51.8458H158.199C158.78 51.8458 158.811 51.8158 160.527 49.5671L162.273 47.2883L162.365 51.8458H163.575V45.6992H162.962C162.349 45.6992 162.349 45.6992 160.619 47.9629L158.903 50.2267L158.811 45.6992H157.601V51.8458Z" fill="white"/>
<path fill-rule="evenodd" clip-rule="evenodd" d="M31.3687 0.777915C31.0238 1.54086 26.3988 11.9978 26.242 12.3718C26.195 12.4765 26.0539 12.5663 25.9127 12.5663C25.7873 12.5663 24.9407 12.8056 24.0628 13.0898L22.4322 13.6135L18.5754 11.2198C16.4433 9.88844 14.6403 8.7964 14.5619 8.78144C14.4992 8.76649 14.2954 8.96092 14.1229 9.21525L13.8094 9.67905L17.2742 11.8332C17.5971 12.0332 17.8931 12.2164 18.1645 12.3843C20.6348 13.9133 21.0593 14.176 21.0251 14.2528C21.018 14.2687 20.9912 14.2767 20.9588 14.2863C20.9438 14.2907 20.9275 14.2955 20.9115 14.3016C20.8174 14.3465 19.9708 14.8551 19.0301 15.4535C16.0356 17.3235 13.3861 20.1359 11.8653 23.0082C10.5327 25.5215 9.96826 27.93 9.96826 30.9669C9.96826 33.3754 10.1878 34.5273 11.0814 36.9508C11.3636 37.7287 13.2606 44.1315 15.3145 51.1627C17.3526 58.1937 19.0458 63.9682 19.0615 63.9981C19.1061 64.0408 21.731 63.3568 29.2095 61.3339L25.4481 48.3408C25.5621 48.3952 26.303 48.5693 28.3546 48.8306C28.3546 48.8306 30.7482 49.1571 33.3127 48.8306C35.8773 48.504 37.7183 47.9163 37.7183 47.9163C37.7183 47.9163 39.5213 50.1453 41.5281 52.6287L45.1967 57.1466L46.1531 56.4285C46.6861 56.0246 48.395 54.768 49.9471 53.631C51.4993 52.4791 52.8632 51.4618 52.973 51.3571L46.1355 42.953C46.343 42.7388 46.7814 42.2767 46.8742 42.1418L47.3446 41.6033C48.2225 40.616 49.6963 38.4617 50.2294 37.3697C53.0827 31.5802 52.487 25.1475 48.6301 19.8966C46.9683 17.6376 43.6916 15.0645 40.9166 13.8528C39.2704 13.1497 37.0441 12.4914 35.3039 12.2072C33.7047 11.9529 29.5971 11.893 28.4369 12.1025C28.0607 12.1773 27.7628 12.1623 27.7628 12.1025C27.7628 12.0277 28.8916 9.40976 30.2713 6.28313C31.6509 3.14156 32.7797 0.538558 32.7797 0.463758C32.7797 0.344079 32.0899 0 31.8547 0C31.7764 0 31.5568 0.359035 31.3687 0.777915Z" fill="#DF1F28"/>
<path d="M53.8288 50.6263C53.8288 50.6263 53.0825 51.2522 52.9728 51.3569L46.1353 42.9528C46.3428 42.7386 46.7812 42.2764 46.874 42.1416L50.3545 46.4351C53.7096 50.594 53.8288 50.6263 53.8288 50.6263Z" fill="#0A84FF"/>
<path d="M31.6824 60.5275C31.6824 60.6023 31.1337 60.8118 30.4752 60.9913C30.0387 61.1095 29.6169 61.2236 29.2096 61.3339L25.4482 48.3408C25.5622 48.3952 26.3031 48.5693 28.3547 48.8306C28.3547 48.8306 29.1269 51.6115 30.0362 54.7231C30.9455 57.8347 31.6824 60.4377 31.6824 60.5275Z" fill="#0A84FF"/>
<path d="M18.2675 36.4224L16.5579 30.8713C15.988 29.2387 15.5321 25.8101 19.1224 24.1773C22.7128 22.5447 30.2355 19.4426 31.9451 18.7895C33.6548 18.1365 38.7839 16.6671 41.1775 24.1773L43.913 32.6673C44.4829 34.6265 44.4601 38.7734 39.8097 39.6878C35.1594 40.602 27.9559 41.4242 24.9353 41.721C21.687 42.0402 19.7014 40.941 18.2675 36.4224Z" fill="#0A84FF"/>
<path d="M22.9161 36.8689L21.4962 32.2504C21.0228 30.8921 20.9276 28.6373 23.9095 27.2789C26.8914 25.9205 32.9186 23.7406 34.3386 23.1973C35.7586 22.6538 40.5572 20.4328 42.5452 26.6812L44.2153 33.7447C44.6886 35.3747 43.571 38.8556 41.0064 39.3607C36.2193 40.3035 30.9625 41.0303 28.4539 41.2772C25.756 41.5428 24.1069 40.6282 22.9161 36.8689Z" fill="white"/>
<path d="M26.3032 31.8511L33.4839 29.8919L36.0485 33.8103V29.2388L37.5872 28.749L37.4162 35.443L35.7065 35.9328L31.6887 30.3817L31.9452 31.5246L30.0645 32.0144L31.4322 36.9124L30.0645 37.2389L28.5258 32.5041L26.6451 32.994L26.3032 31.8511Z" fill="#0A84FF"/>
</svg>
