<svg width="97" height="96" viewBox="0 0 97 96" fill="none" xmlns="http://www.w3.org/2000/svg">
<mask id="mask0_26_15760" style="mask-type:alpha" maskUnits="userSpaceOnUse" x="0" y="0" width="97" height="96">
<rect x="0.833008" width="96" height="96" fill="#D9D9D9"/>
</mask>
<g mask="url(#mask0_26_15760)">
<path d="M28.833 72C27.6997 72 26.7497 71.6167 25.983 70.85C25.2163 70.0833 24.833 69.1333 24.833 68V60H76.833V24H84.833C85.9663 24 86.9164 24.3833 87.683 25.15C88.4497 25.9167 88.833 26.8667 88.833 28V88L72.833 72H28.833ZM8.83301 68V12C8.83301 10.8667 9.21634 9.91667 9.98301 9.15C10.7497 8.38333 11.6997 8 12.833 8H64.833C65.9663 8 66.9164 8.38333 67.683 9.15C68.4497 9.91667 68.833 10.8667 68.833 12V48C68.833 49.1333 68.4497 50.0833 67.683 50.85C66.9164 51.6167 65.9663 52 64.833 52H24.833L8.83301 68ZM60.833 44V16H16.833V44H60.833Z" fill="white"/>
</g>
</svg>
