<svg width="109" height="40" viewBox="0 0 109 40" fill="none" xmlns="http://www.w3.org/2000/svg">
<path d="M104.211 0.552687C103.276 0.867513 102.74 1.31723 102.327 2.09684C100.81 5.00521 103.905 8.04847 106.861 6.54936C107.964 6.00964 108.515 5.17007 108.592 3.95582C108.623 3.43108 108.577 2.75646 108.485 2.47162C108.209 1.66211 107.198 0.762598 106.279 0.492736C105.314 0.207886 105.206 0.207886 104.211 0.552687ZM106.647 1.25728C106.892 1.37726 107.305 1.75204 107.551 2.09684C107.949 2.62149 108.01 2.84639 108.01 3.64099C108.01 4.70537 107.673 5.35001 106.8 5.91971C105.712 6.63929 104.471 6.5044 103.399 5.55992C102.281 4.57048 102.204 3.04132 103.23 1.9169C104.165 0.912477 105.467 0.657602 106.647 1.25728Z" fill="white"/>
<path d="M104.487 1.81196C103.568 2.26167 103.308 3.9408 104.027 4.69035C104.778 5.48487 106.264 5.26005 106.601 4.33056C106.754 3.92581 106.738 3.86578 106.494 3.86578C106.31 3.86578 106.172 4.01573 106.111 4.24063C105.927 4.9752 104.747 5.00518 104.38 4.30058C104.134 3.85079 104.119 2.89132 104.349 2.50156C104.686 1.87191 105.896 1.90188 106.096 2.53153C106.187 2.81638 106.632 2.93629 106.632 2.68149C106.632 2.33669 106.401 2.03685 106.003 1.84193C105.482 1.57207 104.992 1.55708 104.487 1.81196Z" fill="white"/>
<path d="M36.7265 9.29286C36.6653 19.5621 36.6959 19.2473 35.7001 21.0912C35.0873 22.2156 34.1222 23.1001 32.9732 23.6248C31.1501 24.4494 28.4231 24.1945 26.7379 23.0551C24.0569 21.2561 23.2143 17.6432 24.7463 14.5549C25.7575 12.546 27.3967 11.5416 29.8632 11.3916C31.4411 11.3017 32.5135 11.5266 34.0148 12.2312C34.643 12.546 35.2864 12.8309 35.2864 12.8309L35.2098 9.30784C35.2098 9.30784 33.3561 8.52823 32.2531 8.27336C30.6905 7.91357 28.3465 8.04854 26.7379 8.5732C23.8884 9.51767 21.7436 11.6765 20.8397 14.4949L20.5793 15.3044L20.3035 14.4949C18.7409 9.81751 13.8079 6.89416 9.02805 7.82364C5.94872 8.43831 3.46688 10.2973 2.08806 13.0407C0.923772 15.3344 0.647975 17.4483 1.23016 19.667C2.07276 22.8752 4.49335 25.4238 7.80242 26.5631C11.7396 27.9124 15.9527 26.7131 18.5417 23.5049L19.0013 22.9352L17.6225 21.9457C16.8718 21.406 16.1212 20.9563 16.1212 20.9563L15.539 21.571C15.539 21.571 13.6853 23.265 12.6895 23.5948C12.1686 23.7598 11.5558 23.8197 10.6826 23.7747C7.48074 23.6548 4.69251 21.1661 4.47797 18.2878C4.17159 14.0751 8.03226 10.3123 11.9235 11.0468C13.8385 11.4216 15.6616 12.7259 16.4275 14.285L16.8565 15.1845L12.5363 15.2745C10.1464 15.3194 7.74116 15.3795 7.17427 15.3944L6.13251 15.4094V18.4077H20.3342L20.5946 19.6371C21.6057 24.3594 25.451 27.4027 30.3687 27.4027C34.7656 27.3877 38.1049 25.064 39.5453 21.0013C40.2192 19.0973 40.2957 17.8081 40.2957 8.61824V-1.52588e-05H36.6041L36.7265 9.29286Z" fill="white"/>
<path d="M84.7183 7.61375C84.7183 7.61375 86.3172 10.1024 87.9718 12.651C89.6415 15.1995 91.0205 17.3434 91.0357 17.4183C91.0659 17.4783 89.871 19.2473 88.4004 21.3311L85.7197 25.124L85.6273 20.8214C85.5357 17.1335 85.4743 16.3539 85.1987 15.2595C84.6928 13.3106 83.9113 11.9164 82.6558 10.6721C80.7559 8.81311 78.3349 7.95856 75.3021 8.10851C72.5903 8.24341 70.5836 9.05299 68.7147 10.792C67.55 11.8714 66.8147 12.9508 66.355 14.2251C66.0332 15.1246 65.987 15.0647 65.8037 13.4905C65.6349 12.0663 65.1601 11.0768 64.134 10.0724C62.724 8.70819 61.1617 8.07854 59.1391 8.06355C57.224 8.06355 55.6466 8.64824 54.3903 9.83252L53.6239 10.5522L52.9811 9.89255C50.1004 6.99917 44.3248 7.70376 42.3945 11.1668C41.5063 12.7709 41.4752 13.1007 41.3987 20.3117L41.3374 26.9529H44.8761L44.9223 20.4616C44.9685 13.3556 44.9685 13.3556 45.9332 12.3511C47.1895 11.0319 49.6408 11.0319 50.8971 12.3511C51.8626 13.3556 51.8626 13.3556 51.908 20.4616L51.9542 26.9529H55.4475L55.5391 13.6554L55.9987 12.9358C57.1937 11.0469 60.1349 10.807 61.5449 12.471C62.4021 13.4905 62.4021 13.5954 62.4635 20.5366L62.5248 26.9529H66.0332L66.0483 23.9097C66.0483 21.2412 66.0794 20.9413 66.2475 21.406C66.7533 22.7253 67.366 23.6398 68.4693 24.7042C70.3534 26.5482 72.3601 27.3128 75.2256 27.3278C77.0794 27.3278 78.4273 26.983 79.8214 26.1734L80.6642 25.6786L80.7558 22.0057L80.0206 22.5454C77.7987 24.2245 75.118 24.5093 72.6668 23.34C70.1693 22.1557 68.8979 19.5321 69.3886 16.5937C69.7407 14.42 70.8281 12.9208 72.713 12.0063C73.7088 11.5416 74.0458 11.4516 75.1794 11.3917C78.9323 11.1968 81.2458 12.9808 81.9046 16.5787C82.0424 17.3883 82.1038 19.1123 82.1189 22.3355V26.9529H85.1525L88.171 26.9379L90.5449 23.1301C91.8474 21.0463 92.9508 19.3522 92.9962 19.3822C93.0424 19.4122 94.1147 21.1212 95.371 23.1901L97.6693 26.9379L99.5685 26.9529H101.453L101.178 26.5332C101.039 26.3083 99.5685 24.1645 97.9298 21.7658L94.9575 17.3883L98.2667 12.5011L101.56 7.61375H97.9752L93.1037 15.7093L88.4769 7.61375H86.5928C85.0609 7.61375 84.7183 7.61375 84.7183 7.61375Z" fill="white"/>
<path d="M26.9671 33.7441C26.2472 33.969 25.328 34.9135 25.1289 35.6331C24.991 36.1728 24.9144 36.2477 24.5161 36.2477H24.0566V33.6991H22.8311V39.8457H24.0566V36.9973H24.5008C24.8838 36.9973 24.9604 37.0723 25.0982 37.6419C25.3433 38.5564 25.8795 39.2761 26.5841 39.6209C27.4879 40.0556 29.4028 40.0406 30.2913 39.5758C32.0682 38.6614 32.4207 35.8879 30.95 34.4488C30.1075 33.6242 28.3611 33.3094 26.9671 33.7441ZM29.5867 34.5537C30.2913 34.9584 30.7049 35.9479 30.5977 36.9973C30.4445 38.6164 29.6632 39.351 28.1927 39.216C27.5033 39.1411 27.2888 39.0512 26.8752 38.6014C25.7723 37.4321 26.1399 34.9734 27.4879 34.4488C28.0395 34.2239 29.1117 34.2838 29.5867 34.5537Z" fill="white"/>
<path d="M61.8204 33.7591C60.3037 34.3138 59.5533 36.1128 60.0735 37.9418C60.518 39.5309 62.5246 40.3854 64.5471 39.8307C65.2975 39.6359 66.1554 38.8712 66.3243 38.2266L66.4772 37.7469H65.8646C65.4353 37.7469 65.2672 37.8069 65.2672 37.9717C65.2672 38.0917 65.068 38.4065 64.8227 38.6764C64.4093 39.1411 64.3017 39.1711 63.3674 39.1711C62.4792 39.1711 62.3254 39.1261 61.912 38.7364C60.7785 37.672 60.9625 35.1534 62.2187 34.5237C63.2757 33.984 64.7916 34.3888 65.0218 35.2733C65.1134 35.6181 65.1899 35.663 65.6958 35.6181C66.1705 35.5881 66.247 35.5282 66.2167 35.2733C66.1402 34.8236 65.6806 34.2539 65.1135 33.939C64.4547 33.5643 62.6624 33.4593 61.8204 33.7591Z" fill="white"/>
<path d="M77.9825 33.7441C77.217 33.984 76.3894 34.8685 76.144 35.693C75.8995 36.5775 76.0221 37.8818 76.4045 38.5414C77.0019 39.5158 78.3505 40.0855 79.8362 39.9507C81.2915 39.8307 82.2721 39.186 82.6704 38.0917C83.3443 36.2177 82.4099 34.1489 80.6941 33.7291C79.8362 33.5192 78.7026 33.5192 77.9825 33.7441ZM80.6025 34.5537C81.3066 34.9584 81.7201 35.9478 81.6133 36.9972C81.4755 38.4814 80.7705 39.246 79.5143 39.246C78.1355 39.246 77.4002 38.5114 77.2624 36.9972C77.1557 35.9628 77.554 34.9884 78.243 34.5686C78.8102 34.2238 80.0202 34.2238 80.6025 34.5537Z" fill="white"/>
<path d="M2.91504 39.8757L5.18218 39.8307C7.38814 39.7707 7.48007 39.7558 8.00087 39.366C8.64427 38.8862 8.8587 38.2416 8.58301 37.582C8.38386 37.1322 7.75576 36.6975 7.25026 36.6975C7.08178 36.6825 7.189 36.5625 7.55662 36.3827C8.56763 35.8579 8.67493 34.7486 7.77106 34.119C7.32688 33.8041 7.0664 33.7741 5.10563 33.7291L2.91504 33.6692V39.8757ZM6.89793 34.7486C7.0664 34.9135 7.20429 35.2133 7.20429 35.4082C7.20429 36.0078 6.68349 36.2477 5.33544 36.2477H4.14058V34.4488H5.36603C6.39242 34.4488 6.63753 34.4937 6.89793 34.7486ZM7.189 37.3571C7.51066 37.6419 7.61788 38.2716 7.38814 38.5864C7.14304 38.9463 6.5609 39.0961 5.38132 39.0961H4.14058V36.9673L5.50392 37.0273C6.57619 37.0573 6.9286 37.1322 7.189 37.3571Z" fill="white"/>
<path d="M9.80957 39.8456H11.0198L11.1117 36.9223L12.6589 38.3765L14.1907 39.8456H15.2631C17.3311 39.8456 17.8826 39.0062 17.9132 35.753L17.9285 34.4487H20.0732V39.8456H21.2987V33.6991H16.7337L16.6724 35.8279C16.6111 38.2415 16.412 38.8712 15.6614 39.0361C15.4316 39.0811 15.1559 39.141 15.064 39.171C14.8648 39.231 12.1075 36.7724 12.1075 36.5475C12.1075 36.4726 12.8274 35.8129 13.7159 35.0633L15.3243 33.6991H14.6504C14.0223 33.6991 13.8844 33.774 12.5516 34.9734L11.1117 36.2327L11.0198 33.6991H9.80957V39.8456Z" fill="white"/>
<path d="M32.6357 34.9584C32.6357 36.0678 32.6817 36.2776 32.9881 36.6224C33.4323 37.1172 34.0757 37.2821 35.4697 37.2521L36.6186 37.2221V39.8456H37.8445V33.6991H36.6186V36.5475H35.5769C34.0298 36.5475 33.8612 36.3826 33.8612 34.8834V33.6991H32.6357V34.9584Z" fill="white"/>
<path d="M39.3774 39.8456H39.9749C40.5564 39.8456 40.5874 39.8157 42.3033 37.5669L44.0494 35.2882L44.141 39.8456H45.3518V33.6991H44.7384C44.1258 33.6991 44.1258 33.6991 42.3949 35.9628L40.679 38.2265L40.5874 33.6991H39.3774V39.8456Z" fill="white"/>
<path d="M49.9478 39.8456H50.5452C51.1275 39.8456 51.1578 39.8157 52.8736 37.5669L54.6197 35.2882L54.7121 39.8456H55.9221V33.6991H55.3095C54.6962 33.6991 54.6961 33.6991 52.9652 35.9628L51.2494 38.2265L51.1578 33.6991H49.9478V39.8456Z" fill="white"/>
<path d="M67.4126 39.8457H68.6226L68.715 35.2733L69.6494 37.522C70.5838 39.7707 70.5838 39.7707 71.1047 39.8157L71.6249 39.8607L72.6517 37.492L73.6936 35.1234V39.8457H74.9187V33.6841L73.1878 33.7741L72.161 36.1578L71.135 38.5564L70.798 37.8368C70.6292 37.4321 70.4762 37.0873 70.4762 37.0423C70.4762 37.0123 70.1544 36.2477 69.7713 35.3482L69.0671 33.6991H67.4126V39.8457Z" fill="white"/>
<path d="M82.8853 34.0739C82.8853 34.4337 82.9155 34.4487 84.0339 34.4487H85.1834V39.8456H86.4085V34.4487H87.4807C88.0781 34.4487 88.5529 34.4037 88.5688 34.3287C88.5688 34.2688 88.5991 34.1038 88.6302 33.954C88.6756 33.7141 88.4613 33.6991 85.7808 33.6991H82.8853V34.0739Z" fill="white"/>
<path d="M89.3198 39.8456H90.545V37.447H91.4642C93.7161 37.447 94.727 36.8473 94.7429 35.5131C94.758 34.9284 94.6816 34.6885 94.39 34.3887C93.8691 33.849 93.1952 33.6991 91.1273 33.6991H89.3198V39.8456ZM93.0725 34.6286C93.7926 34.9434 93.7472 36.1278 92.996 36.5025C92.7817 36.6075 92.154 36.6975 91.5869 36.6975H90.545V34.4487H91.618C92.1995 34.4487 92.8582 34.5237 93.0725 34.6286Z" fill="white"/>
<path d="M95.6011 39.8456H96.1985C96.78 39.8456 96.8111 39.8157 98.5269 37.5669L100.273 35.2882L100.365 39.8456H101.575V33.6991H100.962C100.349 33.6991 100.349 33.6991 98.6185 35.9628L96.9027 38.2265L96.8111 33.6991H95.6011V39.8456Z" fill="white"/>
</svg>
