<svg width="40" height="41" viewBox="0 0 40 41" fill="none" xmlns="http://www.w3.org/2000/svg">
<mask id="mask0_302_38586" style="mask-type:alpha" maskUnits="userSpaceOnUse" x="0" y="0" width="40" height="41">
<rect y="0.599609" width="40" height="40" fill="#D9D9D9"/>
</mask>
<g mask="url(#mask0_302_38586)">
<path d="M15.9168 25.8496L30.0419 11.7246C30.3752 11.3913 30.771 11.2246 31.2294 11.2246C31.6877 11.2246 32.0835 11.3913 32.4169 11.7246C32.7502 12.0579 32.9169 12.4538 32.9169 12.9121C32.9169 13.3704 32.7502 13.7663 32.4169 14.0996L17.0835 29.4329C16.7502 29.7663 16.3613 29.9329 15.9168 29.9329C15.4724 29.9329 15.0835 29.7663 14.7502 29.4329L7.58352 22.2663C7.25018 21.9329 7.09046 21.5371 7.10435 21.0788C7.11824 20.6204 7.29185 20.2246 7.62518 19.8913C7.95852 19.5579 8.35435 19.3913 8.81268 19.3913C9.27102 19.3913 9.66685 19.5579 10.0002 19.8913L15.9168 25.8496Z" fill="#CD1C29"/>
</g>
</svg>
