<svg width="97" height="96" viewBox="0 0 97 96" fill="none" xmlns="http://www.w3.org/2000/svg">
<mask id="mask0_37_4179" style="mask-type:alpha" maskUnits="userSpaceOnUse" x="0" y="0" width="97" height="96">
<rect x="0.5" width="96" height="96" fill="#D9D9D9"/>
</mask>
<g mask="url(#mask0_37_4179)">
<path d="M36.5 36C35.3667 36 34.4167 35.6167 33.65 34.85C32.8833 34.0833 32.5 33.1333 32.5 32C32.5 30.8667 32.8833 29.9167 33.65 29.15C34.4167 28.3833 35.3667 28 36.5 28H60.5C61.6333 28 62.5833 28.3833 63.35 29.15C64.1167 29.9167 64.5 30.8667 64.5 32C64.5 33.1333 64.1167 34.0833 63.35 34.85C62.5833 35.6167 61.6333 36 60.5 36H36.5ZM28.5 92C26.3 92 24.4167 91.2167 22.85 89.65C21.2833 88.0833 20.5 86.2 20.5 84V12C20.5 9.8 21.2833 7.91667 22.85 6.35C24.4167 4.78333 26.3 4 28.5 4H68.5C70.7 4 72.5833 4.78333 74.15 6.35C75.7167 7.91667 76.5 9.8 76.5 12V84C76.5 86.2 75.7167 88.0833 74.15 89.65C72.5833 91.2167 70.7 92 68.5 92H28.5ZM28.5 80V84H68.5V80H28.5ZM28.5 72H68.5V24H28.5V72ZM28.5 16H68.5V12H28.5V16Z" fill="white"/>
</g>
</svg>
