<svg width="205" height="96" viewBox="0 0 205 96" fill="none" xmlns="http://www.w3.org/2000/svg">
<path d="M6.60696 41.0663C2.01879 39.3626 0.550572 35.5765 0.550572 31.7904V30.8439C0.550572 24.5968 4.03759 21 11.0116 21H14.4986C20.0044 21 23.3079 23.461 23.3079 29.3295C23.3079 30.6546 22.5738 31.9797 20.7385 31.9797C18.9033 31.9797 18.1692 30.6546 18.1692 29.3295C18.1692 27.0578 16.5174 25.9219 14.3151 25.9219H10.8281C6.97402 25.9219 5.5058 27.4364 5.5058 30.8439V31.7904C5.5058 34.0621 6.79049 35.5765 8.44223 36.1444L18.1692 39.7412C22.3903 41.2557 24.4091 44.4739 24.4091 49.2065V51.2888C24.4091 57.5359 20.9221 61.7006 13.948 61.7006H8.80928C3.30347 61.7006 0 59.2396 0 53.3712C0 52.046 0.73411 50.7209 2.56938 50.7209C4.40465 50.7209 5.13874 52.046 5.13874 53.3712C5.13874 55.8321 6.79049 56.7787 8.99282 56.7787H14.1316C17.8021 56.7787 19.6374 54.6963 19.6374 51.4781V49.3958C19.6374 46.9348 18.5362 45.6097 16.8845 44.8524L6.60696 41.0663Z" fill="white"/>
<path d="M42.5771 31.792C48.0829 31.792 51.3864 35.3888 51.3864 40.5V58.484C51.3864 59.8092 50.6523 61.1343 48.817 61.1343H38.7231C33.7678 61.1343 30.4644 58.6733 30.4644 53.5621V49.2081C30.4644 44.0968 33.7678 41.6359 38.7231 41.6359H46.4312V40.5C46.4312 37.6605 44.7794 36.5246 42.5771 36.5246H35.4196C34.1349 36.5246 33.0337 35.7674 33.0337 34.2529C33.0337 32.5492 34.1349 31.792 35.4196 31.792H42.5771ZM46.4312 56.4016V46.3685H38.7231C36.5207 46.3685 35.4196 47.5043 35.4196 49.2081V53.3728C35.4196 55.0765 36.5207 56.2123 38.7231 56.2123H46.4312V56.4016Z" fill="white"/>
<path d="M85.5134 42.0145C85.5134 38.607 84.0452 36.5246 80.3747 36.5246H77.2547V59.0519C77.2547 60.377 76.5206 61.7022 74.8689 61.7022C73.0336 61.7022 72.483 60.377 72.483 59.0519V36.5246H64.2243V59.0519C64.2243 60.377 63.4902 61.7022 61.8385 61.7022C60.0032 61.7022 59.4526 60.377 59.4526 59.0519V34.4423C59.4526 32.9278 60.1867 31.792 61.8385 31.792H80.7417C87.5322 31.792 90.8357 35.7674 90.8357 42.0145V59.0519C90.8357 60.377 90.1016 61.7022 88.4499 61.7022C86.6146 61.7022 86.064 60.377 86.064 59.0519V42.0145H85.5134Z" fill="white"/>
<path opacity="0.5" d="M105.526 61.6944C100.571 61.6944 97.4507 59.6121 97.4507 54.8794C97.4507 53.365 98.0013 52.2291 99.8365 52.2291C101.672 52.2291 102.039 53.365 102.222 54.8794C102.222 56.2046 103.507 57.1511 105.342 57.1511H109.747C112.316 57.1511 113.234 55.8259 113.234 54.1222V52.0399C113.234 50.7147 112.5 49.9575 111.215 49.5789L102.589 47.1179C99.286 46.1714 97.6342 43.8997 97.6342 40.1136V38.7885C97.6342 33.6773 100.387 31.2163 105.893 31.2163H109.013C113.968 31.2163 117.088 33.2986 117.088 38.0312C117.088 39.5457 116.537 40.6816 114.702 40.6816C112.867 40.6816 112.316 39.5457 112.316 38.0312C112.316 36.7061 111.215 35.7596 109.196 35.7596H106.076C103.324 35.7596 102.589 37.0848 102.589 38.7885V40.1136C102.589 41.2494 103.324 42.196 104.608 42.5746L113.05 45.0356C116.354 45.9821 118.006 48.2538 118.006 52.0399V54.1222C118.006 59.2334 115.069 61.6944 109.747 61.6944H105.526Z" fill="white"/>
<path opacity="0.5" d="M129.747 50.7126C129.747 54.1201 131.215 56.2024 134.886 56.2024H141.493V33.6752C141.493 32.35 142.044 31.0249 143.879 31.0249C145.714 31.0249 146.265 32.35 146.265 33.6752V58.4741C146.265 59.7993 145.531 61.1244 143.879 61.1244H134.886C128.095 61.1244 124.792 57.149 124.792 50.9019V33.8645C124.792 32.5393 125.526 31.2142 127.178 31.2142C129.013 31.2142 129.564 32.5393 129.564 33.8645V50.7126H129.747Z" fill="white"/>
<path opacity="0.5" d="M171.233 42.0145C171.233 38.607 169.765 36.5246 166.094 36.5246H159.488V59.0519C159.488 60.377 158.937 61.7022 157.102 61.7022C155.266 61.7022 154.716 60.377 154.716 59.0519V34.4423C154.716 32.9278 155.45 31.792 157.102 31.792H166.094C172.885 31.792 176.188 35.7674 176.188 42.0145V59.0519C176.188 60.377 175.454 61.7022 173.803 61.7022C171.967 61.7022 171.417 60.377 171.417 59.0519V42.0145H171.233Z" fill="white"/>
<path opacity="0.5" d="M205 64.1482C205 70.3952 201.513 75.1278 194.722 75.1278H188.666C187.381 75.1278 186.28 74.5599 186.28 72.6669C186.28 70.9631 187.381 70.2059 188.666 70.2059H194.722C198.393 70.2059 200.045 67.7449 200.045 63.9588V61.1193H193.438C186.647 61.1193 183.344 57.1439 183.344 50.8968V42.946C183.344 36.6989 186.647 31.9663 193.621 31.9663H202.431C204.266 31.9663 205 33.2914 205 34.6166V64.1482ZM193.438 36.5096C189.767 36.5096 188.115 39.1599 188.115 42.7567V50.7075C188.115 54.115 189.584 56.1973 193.254 56.1973H199.861V36.5096H193.438Z" fill="white"/>
</svg>
