<svg width="97" height="96" viewBox="0 0 97 96" fill="none" xmlns="http://www.w3.org/2000/svg">
<path fill-rule="evenodd" clip-rule="evenodd" d="M76.8998 76.64C79.2598 73.04 80.1398 71.2 81.9398 67.16C68.6598 62.12 66.5398 43.2 79.6598 35.96C75.6598 30.92 70.0198 28 64.6998 28C60.8598 28 58.2198 29 55.8598 29.92C53.8598 30.68 52.0598 31.36 49.8198 31.36C47.4198 31.36 45.2998 30.6 43.0598 29.8C40.6598 28.92 38.0998 28 34.8998 28C28.9398 28 22.5798 31.64 18.5398 37.88C12.8598 46.68 13.8598 63.16 23.0198 77.24C26.2998 82.28 30.6998 87.92 36.4198 88C38.8198 88.04 40.3798 87.32 42.0998 86.56C44.0598 85.68 46.1798 84.72 49.8998 84.72C53.6198 84.68 55.6998 85.68 57.6598 86.56C59.3398 87.32 60.8598 88.04 63.2198 88C68.9798 87.92 73.6198 81.68 76.8998 76.64Z" fill="white"/>
<path opacity="0.4" fill-rule="evenodd" clip-rule="evenodd" d="M63.8598 8C64.4998 12.4 62.6998 16.76 60.3398 19.8C57.8198 23.08 53.4198 25.64 49.1798 25.48C48.4198 21.24 50.3798 16.88 52.7798 13.96C55.4598 10.76 59.9798 8.28 63.8598 8Z" fill="white"/>
</svg>
