<svg width="97" height="96" viewBox="0 0 97 96" fill="none" xmlns="http://www.w3.org/2000/svg">
<mask id="mask0_26_15755" style="mask-type:alpha" maskUnits="userSpaceOnUse" x="0" y="0" width="97" height="96">
<rect x="0.166504" width="96" height="96" fill="#D9D9D9"/>
</mask>
<g mask="url(#mask0_26_15755)">
<path d="M20.1665 84C17.9665 84 16.0832 83.2167 14.5165 81.65C12.9498 80.0833 12.1665 78.2 12.1665 76V20C12.1665 17.8 12.9498 15.9167 14.5165 14.35C16.0832 12.7833 17.9665 12 20.1665 12H76.1665C78.3665 12 80.2498 12.7833 81.8165 14.35C83.3832 15.9167 84.1665 17.8 84.1665 20V30H76.1665V20H20.1665V76H76.1665V66H84.1665V76C84.1665 78.2 83.3832 80.0833 81.8165 81.65C80.2498 83.2167 78.3665 84 76.1665 84H20.1665ZM52.1665 68C49.9665 68 48.0832 67.2167 46.5165 65.65C44.9498 64.0833 44.1665 62.2 44.1665 60V36C44.1665 33.8 44.9498 31.9167 46.5165 30.35C48.0832 28.7833 49.9665 28 52.1665 28H80.1665C82.3665 28 84.2498 28.7833 85.8165 30.35C87.3832 31.9167 88.1665 33.8 88.1665 36V60C88.1665 62.2 87.3832 64.0833 85.8165 65.65C84.2498 67.2167 82.3665 68 80.1665 68H52.1665ZM80.1665 60V36H52.1665V60H80.1665ZM64.1665 54C65.8332 54 67.2498 53.4167 68.4165 52.25C69.5832 51.0833 70.1665 49.6667 70.1665 48C70.1665 46.3333 69.5832 44.9167 68.4165 43.75C67.2498 42.5833 65.8332 42 64.1665 42C62.4998 42 61.0832 42.5833 59.9165 43.75C58.7498 44.9167 58.1665 46.3333 58.1665 48C58.1665 49.6667 58.7498 51.0833 59.9165 52.25C61.0832 53.4167 62.4998 54 64.1665 54Z" fill="white"/>
</g>
</svg>
