<svg width="29" height="29" viewBox="0 0 29 29" fill="none" xmlns="http://www.w3.org/2000/svg">
<path d="M13.4498 17.825L11.3269 19.9478C10.8794 20.3954 10.168 20.3954 9.70897 19.9593C9.58274 19.8331 9.45652 19.7183 9.33029 19.5921C8.1699 18.424 7.09967 17.1696 6.12877 15.8398C5.18782 14.5316 4.43047 13.2235 3.87967 11.9268C3.34034 10.6187 3.06494 9.36789 3.06494 8.17449C3.06494 7.39419 3.20264 6.64832 3.47804 5.95982C3.75344 5.25984 4.18949 4.61724 4.79767 4.04349C5.53207 3.32057 6.33532 2.96484 7.18447 2.96484C7.50577 2.96484 7.82707 3.03369 8.11394 3.17139C8.41229 3.30909 8.67622 3.51564 8.88277 3.81399L11.545 7.56632C11.7515 7.85319 11.9007 8.11712 12.004 8.36957C12.1072 8.61054 12.1646 8.85152 12.1646 9.06954C12.1646 9.34494 12.0843 9.62034 11.9236 9.88427C11.7745 10.1482 11.5564 10.4236 11.281 10.699L10.4089 11.6055C10.2827 11.7317 10.2253 11.8809 10.2253 12.0645C10.2253 12.1563 10.2368 12.2366 10.2598 12.3284C10.2942 12.4202 10.3286 12.4891 10.3516 12.5579C10.5581 12.9366 10.9138 13.43 11.4187 14.0267C11.9351 14.6234 12.4859 15.2316 13.0826 15.8398C13.1974 15.9545 13.3236 16.0693 13.4383 16.184C13.8973 16.6316 13.9088 17.366 13.4498 17.825ZM25.9805 21.7035C25.979 22.1366 25.881 22.5639 25.6936 22.9543C25.4986 23.3674 25.2461 23.7575 24.9133 24.1247C24.3511 24.7444 23.7314 25.1919 23.0314 25.4788C23.02 25.4788 23.0085 25.4903 22.997 25.4903C22.32 25.7657 21.5856 25.9148 20.7938 25.9148C19.6234 25.9148 18.3726 25.6394 17.053 25.0772C15.7333 24.5149 14.4137 23.7575 13.1056 22.8051C12.658 22.4723 12.2105 22.1396 11.7859 21.7838L15.5383 18.0315C15.8596 18.2725 16.1464 18.4561 16.3874 18.5823C16.4448 18.6053 16.5136 18.6397 16.594 18.6741C16.6858 18.7085 16.7776 18.72 16.8808 18.72C17.0759 18.72 17.2251 18.6512 17.3513 18.5249L18.2234 17.6643C18.5103 17.3774 18.7857 17.1594 19.0496 17.0217C19.3135 16.8611 19.5775 16.7807 19.8643 16.7807C20.0824 16.7807 20.3119 16.8266 20.5643 16.9299C20.8168 17.0332 21.0807 17.1824 21.3676 17.3774L25.1658 20.0741C25.4641 20.2806 25.6707 20.5216 25.7969 20.8085C25.9117 21.0953 25.9805 21.3822 25.9805 21.7035Z" fill="white"/>
</svg>
