<svg width="29" height="29" viewBox="0 0 29 29" fill="none" xmlns="http://www.w3.org/2000/svg">
<g clip-path="url(#clip0_37_4888)">
<path d="M2.64775 24.4852H7.02911V13.8447L0.77002 9.15039V22.6074C0.77002 23.6464 1.61187 24.4852 2.64775 24.4852Z" fill="#FAFAFA" fill-opacity="0.64"/>
<path d="M22.0508 24.4852H26.4321C27.4712 24.4852 28.3099 23.6433 28.3099 22.6074V9.15039L22.0508 13.8447" fill="#FAFAFA" fill-opacity="0.64"/>
<path d="M22.0508 5.70825V13.8451L28.3099 9.15075V6.64711C28.3099 4.32499 25.6591 3.00119 23.8033 4.39384" fill="white"/>
<path d="M7.0293 13.8448V5.70801L14.5402 11.3412L22.0511 5.70801V13.8448L14.5402 19.478" fill="#FAFAFA" fill-opacity="0.64"/>
<path d="M0.77002 6.64711V9.15075L7.02911 13.8451V5.70825L5.27657 4.39384C3.41762 3.00119 0.77002 4.32499 0.77002 6.64711Z" fill="white"/>
</g>
<defs>
<clipPath id="clip0_37_4888">
<rect width="27.54" height="27.54" fill="white" transform="translate(0.77002 0.520508)"/>
</clipPath>
</defs>
</svg>
