<svg width="20" height="20" viewBox="0 0 20 20" fill="none" xmlns="http://www.w3.org/2000/svg">
<path d="M10 0C11.9778 0 13.9112 0.58649 15.5557 1.6853C17.2002 2.78412 18.4819 4.3459 19.2388 6.17317C19.9957 8.00043 20.1937 10.0111 19.8079 11.9509C19.422 13.8907 18.4696 15.6725 17.0711 17.0711C15.6725 18.4696 13.8907 19.422 11.9509 19.8079C10.0111 20.1937 8.00043 19.9957 6.17317 19.2388C4.3459 18.4819 2.78412 17.2002 1.6853 15.5557C0.586491 13.9112 0 11.9778 0 10C0.00286757 7.34871 1.05736 4.80684 2.9321 2.9321C4.80684 1.05736 7.34872 0.00286757 10 0ZM10 18.3333C11.6482 18.3333 13.2593 17.8446 14.6298 16.9289C16.0002 16.0132 17.0683 14.7117 17.699 13.189C18.3297 11.6663 18.4948 9.99076 18.1732 8.37425C17.8517 6.75774 17.058 5.27288 15.8926 4.10744C14.7271 2.94201 13.2423 2.14833 11.6258 1.82679C10.0092 1.50525 8.33369 1.67027 6.81097 2.301C5.28825 2.93173 3.98677 3.99984 3.07109 5.37025C2.15541 6.74066 1.66667 8.35182 1.66667 10C1.66909 12.2094 2.54785 14.3276 4.11012 15.8899C5.6724 17.4522 7.79061 18.3309 10 18.3333Z" fill="#currentColor"/>
<path d="M9.99986 4.16679C10.2209 4.16679 10.4328 4.25459 10.5891 4.41087C10.7454 4.56715 10.8332 4.77911 10.8332 5.00013V11.6668C10.8332 11.8878 10.7454 12.0998 10.5891 12.256C10.4328 12.4123 10.2209 12.5001 9.99986 12.5001C9.77885 12.5001 9.56688 12.4123 9.4106 12.256C9.25432 12.0998 9.16652 11.8878 9.16652 11.6668V5.00013C9.16652 4.77911 9.25432 4.56715 9.4106 4.41087C9.56688 4.25459 9.77885 4.16679 9.99986 4.16679Z" fill="#currentColor"/>
<path d="M9.16652 15.0001C9.16652 14.5399 9.53962 14.1668 9.99986 14.1668C10.4601 14.1668 10.8332 14.5399 10.8332 15.0001C10.8332 15.4604 10.4601 15.8335 9.99986 15.8335C9.53962 15.8335 9.16652 15.4604 9.16652 15.0001Z" fill="#FAFAFA"/>
</svg>
