<svg width="24" height="25" viewBox="0 0 24 25" fill="none" xmlns="http://www.w3.org/2000/svg">
<path d="M19 1.20972H5C3.67441 1.2113 2.40356 1.7386 1.46622 2.67594C0.528882 3.61327 0.00158786 4.88412 0 6.20972V14.2097C0.00158786 15.5353 0.528882 16.8062 1.46622 17.7435C2.40356 18.6808 3.67441 19.2081 5 19.2097H11V21.2097H7C6.73478 21.2097 6.48043 21.3151 6.29289 21.5026C6.10536 21.6901 6 21.9445 6 22.2097C6 22.4749 6.10536 22.7293 6.29289 22.9168C6.48043 23.1044 6.73478 23.2097 7 23.2097H17C17.2652 23.2097 17.5196 23.1044 17.7071 22.9168C17.8946 22.7293 18 22.4749 18 22.2097C18 21.9445 17.8946 21.6901 17.7071 21.5026C17.5196 21.3151 17.2652 21.2097 17 21.2097H13V19.2097H19C20.3256 19.2081 21.5964 18.6808 22.5338 17.7435C23.4711 16.8062 23.9984 15.5353 24 14.2097V6.20972C23.9984 4.88412 23.4711 3.61327 22.5338 2.67594C21.5964 1.7386 20.3256 1.2113 19 1.20972ZM5 3.20972H19C19.7956 3.20972 20.5587 3.52579 21.1213 4.0884C21.6839 4.65101 22 5.41407 22 6.20972V13.2097H2V6.20972C2 5.41407 2.31607 4.65101 2.87868 4.0884C3.44129 3.52579 4.20435 3.20972 5 3.20972ZM19 17.2097H5C4.38174 17.2072 3.77937 17.0136 3.2753 16.6556C2.77123 16.2976 2.39008 15.7926 2.184 15.2097H21.816C21.6099 15.7926 21.2288 16.2976 20.7247 16.6556C20.2206 17.0136 19.6183 17.2072 19 17.2097Z" fill="#D7D7D7"/>
</svg>
