<svg width="97" height="96" viewBox="0 0 97 96" fill="none" xmlns="http://www.w3.org/2000/svg">
<mask id="mask0_36_3832" style="mask-type:alpha" maskUnits="userSpaceOnUse" x="0" y="0" width="97" height="96">
<rect x="0.5" width="96" height="96" fill="#D9D9D9"/>
</mask>
<g mask="url(#mask0_36_3832)">
<path d="M14.5 80C12.8333 80 11.4167 79.4167 10.25 78.25C9.08333 77.0833 8.5 75.6667 8.5 74C8.5 72.3333 9.08333 70.9167 10.25 69.75C11.4167 68.5833 12.8333 68 14.5 68H16.5V24C16.5 21.8 17.2833 19.9167 18.85 18.35C20.4167 16.7833 22.3 16 24.5 16H80.5C81.6333 16 82.5833 16.3833 83.35 17.15C84.1167 17.9167 84.5 18.8667 84.5 20C84.5 21.1333 84.1167 22.0833 83.35 22.85C82.5833 23.6167 81.6333 24 80.5 24H24.5V68H42.5C44.1667 68 45.5833 68.5833 46.75 69.75C47.9167 70.9167 48.5 72.3333 48.5 74C48.5 75.6667 47.9167 77.0833 46.75 78.25C45.5833 79.4167 44.1667 80 42.5 80H14.5ZM60.5 80C59.3667 80 58.4167 79.6167 57.65 78.85C56.8833 78.0833 56.5 77.1333 56.5 76V36C56.5 34.8667 56.8833 33.9167 57.65 33.15C58.4167 32.3833 59.3667 32 60.5 32H84.5C85.6333 32 86.5833 32.3833 87.35 33.15C88.1167 33.9167 88.5 34.8667 88.5 36V76C88.5 77.1333 88.1167 78.0833 87.35 78.85C86.5833 79.6167 85.6333 80 84.5 80H60.5ZM64.5 68H80.5V40H64.5V68Z" fill="white"/>
</g>
</svg>
